<?xml version="1.0" encoding="utf-8"?>
<!-- Generator: Adobe Illustrator 17.0.0, SVG Export Plug-In . SVG Version: 6.00 Build 0)  -->
<!DOCTYPE svg PUBLIC "-//W3C//DTD SVG 1.1//EN" "http://www.w3.org/Graphics/SVG/1.1/DTD/svg11.dtd">
<svg version="1.1" xmlns="http://www.w3.org/2000/svg" xmlns:xlink="http://www.w3.org/1999/xlink" x="0px" y="0px" width="500px"
	 height="487.5px" viewBox="0 0 500 487.5" enable-background="new 0 0 500 487.5" xml:space="preserve">
<g id="Floor">
	<path id="Floor_2_" fill="#F5F5F5" d="M76.803,442.796c-95.654-48.382-95.655-126.825-0.001-175.208
		c95.654-48.382,250.74-48.382,346.394,0.001s95.655,126.826,0.001,175.208C327.544,491.179,172.458,491.178,76.803,442.796z"/>
</g>
<g id="Shadows">
	<path id="Shadow_44_" fill="#E0E0E0" d="M161.219,358.301c28.021,16.178,28.02,42.407,0,58.585
		c-28.021,16.178-73.451,16.178-101.472,0c-28.021-16.178-28.02-42.407,0-58.585C87.768,342.124,133.199,342.124,161.219,358.301z"
		/>
	<path id="Shadow_33_" fill="#E0E0E0" d="M465.434,342.495l-117.83-67.824c-1.989-1.148-5.214-1.148-7.203,0L165.96,375.385
		c-1.989,1.148-1.989,3.01,0,4.158l117.828,67.825c1.989,1.148,5.214,1.148,7.203,0l174.444-100.715
		C467.423,345.505,467.423,343.643,465.434,342.495z"/>
</g>
<g id="Cargo_Car_1_">
	<g id="Cargo_Car">
		<path fill="#E0E0E0" d="M357.142,101.568l70.02,40.445c4.969,2.869,9.035,9.911,9.035,15.65v138.202l5.945,3.432V157.123
			c0-8.101-5.74-18.043-12.756-22.094l-72.514-41.886c-7.016-4.051-12.756-0.737-12.756,7.365v142.173l5.982,3.455l0-140.502
			C350.1,101.161,353.269,99.332,357.142,101.568z"/>
		<g>
			<path id="XMLID_670_" fill="#455A64" d="M303.134,410.404c0-7.286,5.116-16.146,11.426-19.788
				c3.312-1.912,6.281-1.988,8.367-0.592l0,0l7.705,4.399l-16.387,27.843l-7.637-4.394l0.011-0.019
				C304.477,416.692,303.134,414.122,303.134,410.404z"/>
			<path id="XMLID_657_" fill="#37474F" d="M322.558,395.225c-6.31,3.643-11.425,12.503-11.425,19.789
				c-0.001,7.286,5.114,10.239,11.425,6.596c6.31-3.643,11.425-12.503,11.425-19.789
				C333.983,394.535,328.868,391.582,322.558,395.225z"/>
			<path id="XMLID_655_" fill="#263238" d="M326.425,406.185c0-2.848-1.731-4.157-3.868-2.924c-2.136,1.233-3.867,4.542-3.867,7.39
				c0,2.848,1.731,4.157,3.867,2.924C324.694,412.341,326.425,409.033,326.425,406.185z"/>
			<path id="XMLID_652_" fill="#F0F0F0" d="M309.167,383.067c0,0,0.005,13.037,6.219,17.65c1.171,0.869,2.415,1.471,3.148,2.081
				c1.585,1.32,0.535,3.746-1.391,4.778c-2.801,1.501-18.054-2.56-24.517-14.959L309.167,383.067z"/>
			<path id="XMLID_651_" fill="#FAFAFA" d="M315.088,386.468c0,0,0.005,13.037,6.219,17.65c1.171,0.869,2.415,1.471,3.148,2.081
				c1.585,1.32,0.535,3.746-1.391,4.778c-2.801,1.501-18.055-2.56-24.517-14.959L315.088,386.468z"/>
			<path id="XMLID_650_" fill="#263238" d="M322.558,407.152c-0.605,0.35-1.096,1.2-1.096,1.899c0,0.699,0.491,0.983,1.096,0.633
				c0.605-0.35,1.096-1.2,1.096-1.899C323.654,407.086,323.163,406.802,322.558,407.152z"/>
		</g>
		<g>
			<path id="XMLID_635_" fill="#455A64" d="M427.174,338.79c0-7.286,5.116-16.146,11.426-19.788
				c3.312-1.912,6.281-1.988,8.368-0.592l0,0l7.705,4.399l-16.387,27.844l-7.637-4.394l0.011-0.019
				C428.517,345.078,427.174,342.508,427.174,338.79z"/>
			<path id="XMLID_630_" fill="#37474F" d="M446.598,323.61c-6.31,3.643-11.425,12.503-11.425,19.789
				c-0.001,7.286,5.115,10.239,11.425,6.596c6.31-3.643,11.425-12.503,11.425-19.789
				C458.023,322.921,452.908,319.968,446.598,323.61z"/>
			<path id="XMLID_574_" fill="#263238" d="M450.465,334.57c0-2.848-1.731-4.157-3.868-2.924c-2.136,1.233-3.867,4.542-3.867,7.39
				c0,2.848,1.731,4.157,3.867,2.924C448.734,340.727,450.465,337.418,450.465,334.57z"/>
			<path id="XMLID_543_" fill="#F0F0F0" d="M433.207,311.453c0,0,0.005,13.037,6.219,17.65c1.171,0.869,2.415,1.471,3.148,2.081
				c1.585,1.32,0.535,3.746-1.391,4.778c-2.801,1.501-18.054-2.56-24.517-14.959L433.207,311.453z"/>
			<path id="XMLID_541_" fill="#FAFAFA" d="M439.128,314.854c0,0,0.005,13.037,6.219,17.65c1.171,0.869,2.415,1.471,3.148,2.081
				c1.585,1.32,0.535,3.746-1.391,4.778c-2.801,1.501-18.055-2.56-24.517-14.959L439.128,314.854z"/>
			<path id="XMLID_540_" fill="#263238" d="M446.598,335.537c-0.605,0.35-1.096,1.2-1.096,1.899c0,0.699,0.491,0.982,1.096,0.633
				c0.605-0.35,1.096-1.2,1.096-1.899C447.694,335.471,447.203,335.188,446.598,335.537z"/>
		</g>
		<g>
			<polygon fill="#455A64" points="448.126,302.75 338.133,239.227 158.421,342.984 268.412,406.508 			"/>
			<polygon fill="#37474F" points="448.126,302.75 448.125,309.659 268.412,413.417 268.412,406.508 			"/>
			<polygon fill="#263238" points="158.421,342.984 158.42,349.894 268.412,413.417 268.412,406.508 			"/>
		</g>
	</g>
</g>
<g id="Boxes">
	<g id="Box_11_">
		<polygon id="Shadow_32_" opacity="0.1" points="432.14,303.048 337.796,357.539 241.582,302.063 336.18,247.714 		"/>
		<g id="Box_3_">
			<g id="XMLID_28343_">
				<polygon id="XMLID_28977_" fill="#27DEBF" points="428.93,238.259 342.53,188.289 251.219,241.138 337.619,291.107 				"/>
				<polygon id="XMLID_4471_" opacity="0.7" fill="#FFFFFF" points="428.93,238.259 342.53,188.289 251.219,241.138 
					337.619,291.107 				"/>
			</g>
			<g id="XMLID_28342_">
				<polygon id="XMLID_28975_" fill="#27DEBF" points="337.62,351.505 428.93,298.656 428.93,238.258 337.619,291.107 				"/>
				<polygon id="XMLID_539_" opacity="0.6" fill="#FFFFFF" points="337.62,351.505 428.93,298.656 428.93,238.258 337.619,291.107 
									"/>
			</g>
			<g>
				<g id="XMLID_28327_">
					<g id="XMLID_28326_">
						<path id="XMLID_28569_" fill="#455A64" d="M347.697,331.471c-0.281,0-0.545-0.069-0.786-0.208
							c-0.623-0.361-0.981-1.153-0.981-2.171v-6.399c0-0.004,0-0.008,0-0.013v-0.474l0.327,0.059l5.018-2.947v7.151
							c0,1.819-1.086,3.871-2.471,4.672C348.427,331.359,348.049,331.471,347.697,331.471z M346.735,323.167v5.925
							c0,0.723,0.212,1.262,0.579,1.473c0.365,0.209,0.792,0.048,1.088-0.12c1.121-0.65,2.069-2.469,2.069-3.976v-0.524h-1.857
							l-0.367-2.509L346.735,323.167z M349.309,325.141h1.161v-4.418l-2.993,1.758l1.482,0.264L349.309,325.141z"/>
					</g>
					<g id="XMLID_28329_">
						<path id="XMLID_28568_" fill="#455A64" d="M348.603,336.572c-0.222,0-0.402-0.18-0.402-0.402v-5.376
							c0-0.222,0.18-0.402,0.402-0.402c0.222,0,0.402,0.18,0.402,0.402v5.376C349.005,336.392,348.825,336.572,348.603,336.572z"/>
					</g>
					<g id="XMLID_28357_">
						<path id="XMLID_28567_" fill="#455A64" d="M346.266,337.92c-0.138,0-0.275-0.071-0.348-0.201
							c-0.111-0.193-0.046-0.438,0.147-0.549l4.674-2.697c0.189-0.115,0.438-0.05,0.549,0.147c0.111,0.193,0.046,0.438-0.147,0.549
							l-4.674,2.698C346.404,337.903,346.335,337.92,346.266,337.92z"/>
					</g>
				</g>
				<g id="XMLID_28339_">
					<g id="XMLID_28341_">
						<path id="XMLID_28566_" fill="#455A64" d="M362.915,328.662c-0.157,0-0.306-0.038-0.44-0.113
							c-0.306-0.176-0.482-0.528-0.482-0.968v-1.103c0-0.222,0.18-0.402,0.402-0.402c0.222,0,0.402,0.18,0.402,0.402v1.103
							c0,0.165,0.046,0.251,0.077,0.27c0.032,0.017,0.126,0.011,0.262-0.069c0.354-0.21,0.748-1.008,0.748-1.819v-7.149
							c0-0.222,0.18-0.402,0.402-0.402s0.402,0.18,0.402,0.402v7.149c0,1.048-0.49,2.127-1.142,2.511
							C363.334,328.599,363.118,328.662,362.915,328.662z"/>
					</g>
					<g id="XMLID_28340_">
						<path id="XMLID_28563_" fill="#455A64" d="M358.677,322.413v-0.698c0-3.278,2.307-7.278,5.145-8.916
							c1.452-0.836,2.84-0.96,3.9-0.346c1.065,0.614,1.65,1.875,1.65,3.549v0.233L358.677,322.413z M366.233,312.873
							c-0.608,0-1.291,0.21-2.008,0.624c-2.41,1.391-4.408,4.632-4.705,7.499l9.043-5.223c-0.046-1.259-0.484-2.185-1.243-2.623
							C367,312.964,366.633,312.873,366.233,312.873z"/>
					</g>
				</g>
				<g id="XMLID_28332_">
					<g id="XMLID_28336_">
						<g id="XMLID_28338_">
							<path id="XMLID_28562_" fill="#455A64" d="M377.364,320.423c-0.222,0-0.402-0.18-0.402-0.402v-13.692
								c0-0.222,0.18-0.402,0.402-0.402c0.222,0,0.402,0.18,0.402,0.402v13.692C377.766,320.243,377.586,320.423,377.364,320.423z"
								/>
						</g>
						<g id="XMLID_28337_">
							<path id="XMLID_28561_" fill="#455A64" d="M376.188,309.452c-0.054,0-0.107-0.011-0.159-0.034
								c-0.205-0.088-0.297-0.325-0.209-0.529l1.432-3.307l1.597,1.844c0.147,0.168,0.128,0.421-0.04,0.567
								c-0.172,0.145-0.423,0.127-0.568-0.041l-0.759-0.876l-0.924,2.133C376.492,309.361,376.343,309.452,376.188,309.452z"/>
						</g>
					</g>
					<g id="XMLID_28333_">
						<g id="XMLID_28335_">
							<path id="XMLID_28560_" fill="#455A64" d="M381.086,318.302c-0.222,0-0.402-0.18-0.402-0.402v-13.693
								c0-0.222,0.18-0.402,0.402-0.402c0.222,0,0.402,0.18,0.402,0.402V317.9C381.488,318.122,381.308,318.302,381.086,318.302z"/>
						</g>
						<g id="XMLID_28334_">
							<path id="XMLID_28559_" fill="#455A64" d="M379.908,307.33c-0.055,0-0.107-0.01-0.159-0.033
								c-0.205-0.088-0.298-0.325-0.209-0.529l1.431-3.307l1.597,1.844c0.147,0.168,0.128,0.421-0.04,0.567
								c-0.172,0.144-0.423,0.128-0.568-0.041l-0.759-0.876l-0.924,2.134C380.212,307.239,380.063,307.33,379.908,307.33z"/>
						</g>
					</g>
				</g>
			</g>
			<g id="XMLID_28331_">
				<polygon id="XMLID_529_" fill="#27DEBF" points="337.619,351.505 251.219,301.536 251.219,241.138 337.619,291.107 				"/>
				<polygon id="XMLID_526_" opacity="0.5" fill="#FFFFFF" points="337.619,351.505 251.219,301.536 251.219,241.138 
					337.619,291.107 				"/>
			</g>
			<g id="XMLID_28328_">
				<polygon id="XMLID_523_" fill="#37474F" points="287.492,271.257 293.406,274.671 293.406,265.494 287.492,262.08 				"/>
				<polygon id="XMLID_28272_" fill="#455A64" points="293.406,265.495 384.717,212.646 378.803,209.231 287.492,262.08 				"/>
				<polygon fill="#37474F" points="290.174,260.52 296.083,263.938 299.382,262.037 293.466,258.615 				"/>
			</g>
			<g>
				<g id="XMLID_1348_">
					<path id="XMLID_1349_" fill="#FAFAFA" d="M384.948,220.348l-24.189,13.935c-0.438,0.253-0.319,0.73,0.264,1.067l27.308,15.767
						c0.584,0.337,1.411,0.405,1.849,0.152l24.195-13.941c0.438-0.253,0.319-0.73-0.264-1.067L386.797,220.5
						C386.214,220.163,385.386,220.095,384.948,220.348z"/>
				</g>
				<g>
					<g>
						<path fill="#E0E0E0" d="M397.165,244.061c0.172,0,0.341-0.09,0.433-0.25c0.139-0.239,0.057-0.545-0.183-0.683l-22.671-13.089
							c-0.238-0.14-0.545-0.057-0.683,0.183c-0.139,0.239-0.057,0.545,0.183,0.683l22.671,13.089
							C396.995,244.039,397.081,244.061,397.165,244.061z"/>
					</g>
					<g>
						<path fill="#E0E0E0" d="M394.648,245.502c0.172,0,0.341-0.09,0.433-0.25c0.139-0.239,0.057-0.545-0.183-0.683l-22.671-13.089
							c-0.237-0.139-0.545-0.058-0.683,0.183c-0.139,0.239-0.057,0.545,0.183,0.683l22.671,13.089
							C394.477,245.48,394.563,245.502,394.648,245.502z"/>
					</g>
					<g>
						<path fill="#E0E0E0" d="M392.131,246.944c0.172,0,0.341-0.09,0.433-0.25c0.139-0.239,0.057-0.545-0.183-0.683l-22.671-13.089
							c-0.237-0.139-0.545-0.057-0.683,0.183c-0.139,0.239-0.057,0.545,0.183,0.683l22.671,13.089
							C391.96,246.923,392.046,246.944,392.131,246.944z"/>
					</g>
					<g>
						<path fill="#E0E0E0" d="M389.614,248.387c0.172,0,0.341-0.09,0.433-0.25c0.139-0.239,0.057-0.545-0.183-0.683l-22.671-13.089
							c-0.238-0.14-0.545-0.057-0.683,0.183c-0.139,0.239-0.057,0.545,0.183,0.683l22.671,13.089
							C389.443,248.365,389.529,248.387,389.614,248.387z"/>
					</g>
				</g>
				<g id="XMLID_1296_">
					<g id="XMLID_1346_">
						<polygon id="XMLID_1347_" fill="#455A64" points="412.086,236.697 411.205,236.188 400.877,242.151 401.759,242.66 						"/>
					</g>
					<g id="XMLID_1344_">
						<polygon id="XMLID_1345_" fill="#455A64" points="408.498,234.625 406.967,233.753 396.64,239.716 398.17,240.587 						"/>
					</g>
					<g id="XMLID_1340_">
						<polygon id="XMLID_1342_" fill="#455A64" points="404.909,232.552 404.027,232.043 393.7,238.006 394.582,238.515 						"/>
					</g>
					<g id="XMLID_1337_">
						<polygon id="XMLID_1338_" fill="#455A64" points="402.221,230.979 400.439,229.97 390.111,235.933 391.894,236.942 						"/>
					</g>
					<g id="XMLID_1335_">
						<polygon id="XMLID_1336_" fill="#455A64" points="397.732,228.407 396.85,227.897 386.523,233.861 387.404,234.37 						"/>
					</g>
					<g id="XMLID_1333_">
						<polygon id="XMLID_1334_" fill="#455A64" points="395.169,226.902 393.261,225.825 382.934,231.788 384.841,232.865 						"/>
					</g>
					<g id="XMLID_1330_">
						<polygon id="XMLID_1332_" fill="#455A64" points="390.555,224.261 389.673,223.752 379.345,229.715 380.227,230.224 						"/>
					</g>
					<g id="XMLID_1317_">
						<polygon id="XMLID_1324_" fill="#455A64" points="388.518,223.073 388.077,222.818 377.75,228.781 378.191,229.036 						"/>
					</g>
					<g id="XMLID_1315_">
						<polygon id="XMLID_1316_" fill="#455A64" points="392.14,225.236 391.699,224.981 381.372,230.944 381.812,231.198 						"/>
					</g>
					<g id="XMLID_1308_">
						<polygon id="XMLID_1309_" fill="#455A64" points="399.409,229.387 398.968,229.133 388.641,235.096 389.082,235.35 						"/>
					</g>
					<g id="XMLID_1306_">
						<polygon id="XMLID_1307_" fill="#455A64" points="403.36,231.678 402.919,231.424 392.592,237.387 393.032,237.641 						"/>
					</g>
					<g id="XMLID_1304_">
						<polygon id="XMLID_1305_" fill="#455A64" points="406.158,233.347 405.716,233.093 395.389,239.056 395.83,239.31 						"/>
					</g>
					<g id="XMLID_1302_">
						<polygon id="XMLID_1303_" fill="#455A64" points="410.088,235.531 409.647,235.276 399.32,241.239 399.761,241.493 						"/>
					</g>
					<g id="XMLID_1299_">
						<polygon id="XMLID_1301_" fill="#455A64" points="386.966,222.189 386.084,221.68 375.757,227.643 376.638,228.152 						"/>
					</g>
				</g>
			</g>
			<g>
				<g id="XMLID_1428_">
					<path id="XMLID_1429_" fill="#FAFAFA" d="M400.875,292.65l-0.001,15.148c0,0.583,0.41,0.82,0.915,0.528l23.649-13.653
						c0.505-0.292,0.915-1.001,0.915-1.585l-0.001-15.157c0-0.583-0.41-0.82-0.915-0.528l-23.648,13.662
						C401.285,291.357,400.875,292.066,400.875,292.65z"/>
				</g>
				<g id="XMLID_1393_">
					<g id="XMLID_1426_">
						<polygon id="XMLID_1427_" fill="#455A64" points="424.889,279.573 424.125,280.014 424.125,293.784 424.889,293.343 						"/>
					</g>
					<g id="XMLID_1424_">
						<polygon id="XMLID_1425_" fill="#455A64" points="421.78,281.366 420.464,282.14 420.465,295.911 421.78,295.137 						"/>
					</g>
					<g id="XMLID_1422_">
						<polygon id="XMLID_1423_" fill="#455A64" points="418.672,283.16 417.908,283.601 417.909,297.371 418.672,296.931 						"/>
					</g>
					<g id="XMLID_1420_">
						<polygon id="XMLID_1421_" fill="#455A64" points="416.328,284.489 414.8,285.395 414.8,299.165 416.328,298.259 						"/>
					</g>
					<g id="XMLID_1418_">
						<polygon id="XMLID_1419_" fill="#455A64" points="412.455,286.748 411.691,287.189 411.692,300.959 412.455,300.518 						"/>
					</g>
					<g id="XMLID_1416_">
						<polygon id="XMLID_1417_" fill="#455A64" points="410.217,288.011 408.583,288.983 408.583,302.753 410.217,301.781 						"/>
					</g>
					<g id="XMLID_1413_">
						<polygon id="XMLID_1414_" fill="#455A64" points="406.238,290.335 405.475,290.776 405.475,304.547 406.239,304.105 						"/>
					</g>
					<g id="XMLID_1411_">
						<polygon id="XMLID_1412_" fill="#455A64" points="404.465,291.344 404.083,291.565 404.084,305.335 404.465,305.115 						"/>
					</g>
					<g id="XMLID_1409_">
						<polygon id="XMLID_1410_" fill="#455A64" points="407.655,289.585 407.274,289.806 407.274,303.576 407.655,303.355 						"/>
					</g>
					<g id="XMLID_1407_">
						<polygon id="XMLID_1408_" fill="#455A64" points="413.917,285.918 413.535,286.138 413.535,299.908 413.917,299.688 						"/>
					</g>
					<g id="XMLID_1404_">
						<polygon id="XMLID_1406_" fill="#455A64" points="417.346,283.95 416.964,284.171 416.964,297.94 417.346,297.72 						"/>
					</g>
					<g id="XMLID_1398_">
						<polygon id="XMLID_1401_" fill="#455A64" points="419.809,282.59 419.427,282.811 419.428,296.581 419.809,296.36 						"/>
					</g>
					<g id="XMLID_1396_">
						<polygon id="XMLID_1397_" fill="#455A64" points="423.149,280.562 422.767,280.783 422.767,294.553 423.149,294.332 						"/>
					</g>
					<g id="XMLID_1394_">
						<polygon id="XMLID_1395_" fill="#455A64" points="403.13,292.129 402.366,292.57 402.367,306.34 403.13,305.9 						"/>
					</g>
				</g>
			</g>
		</g>
	</g>
	<g id="Box_10_">
		<polygon id="Shadow_15_" opacity="0.1" points="423.055,236.983 339.232,285.43 250.56,234.126 334.384,185.679 		"/>
		<g id="Box_2_">
			<g id="XMLID_4745_">
				<polygon id="XMLID_4746_" fill="#27DEBF" points="248.249,168.523 328.665,122.008 419.663,174.659 339.247,221.174 				"/>
				<polygon id="XMLID_4743_" opacity="0.3" fill="#FFFFFF" points="248.249,168.523 328.665,122.008 419.663,174.659 
					339.247,221.174 				"/>
			</g>
			<g>
				<g id="XMLID_1391_">
					<path id="XMLID_1392_" fill="#FAFAFA" d="M286.794,152.046l24.189,13.935c0.438,0.253,0.319,0.73-0.264,1.067l-27.308,15.767
						c-0.583,0.337-1.411,0.405-1.849,0.153l-24.195-13.941c-0.438-0.253-0.319-0.73,0.264-1.067l27.313-15.761
						C285.529,151.861,286.357,151.793,286.794,152.046z"/>
				</g>
				<g>
					<g>
						<path fill="#E0E0E0" d="M274.577,175.759c-0.172,0-0.341-0.09-0.433-0.25c-0.139-0.239-0.057-0.545,0.183-0.683l22.671-13.089
							c0.238-0.14,0.545-0.057,0.683,0.183c0.139,0.239,0.057,0.545-0.183,0.683l-22.671,13.089
							C274.748,175.737,274.662,175.759,274.577,175.759z"/>
					</g>
					<g>
						<path fill="#E0E0E0" d="M277.095,177.2c-0.172,0-0.341-0.09-0.433-0.25c-0.139-0.239-0.057-0.545,0.183-0.683l22.671-13.089
							c0.237-0.139,0.545-0.058,0.683,0.183c0.139,0.239,0.057,0.545-0.183,0.683l-22.671,13.089
							C277.266,177.179,277.18,177.2,277.095,177.2z"/>
					</g>
					<g>
						<path fill="#E0E0E0" d="M279.611,178.643c-0.172,0-0.341-0.09-0.433-0.25c-0.139-0.239-0.057-0.545,0.183-0.683l22.671-13.089
							c0.237-0.139,0.545-0.057,0.683,0.183c0.139,0.239,0.057,0.545-0.183,0.683l-22.671,13.089
							C279.782,178.621,279.696,178.643,279.611,178.643z"/>
					</g>
					<g>
						<path fill="#E0E0E0" d="M282.129,180.085c-0.172,0-0.341-0.09-0.433-0.25c-0.139-0.239-0.057-0.545,0.183-0.683l22.671-13.089
							c0.238-0.14,0.545-0.057,0.683,0.183c0.139,0.239,0.057,0.545-0.183,0.683l-22.671,13.089
							C282.3,180.063,282.214,180.085,282.129,180.085z"/>
					</g>
				</g>
				<g id="XMLID_1351_">
					<g id="XMLID_1388_">
						<polygon id="XMLID_1390_" fill="#455A64" points="259.656,168.395 260.538,167.887 270.865,173.849 269.984,174.358 						"/>
					</g>
					<g id="XMLID_1383_">
						<polygon id="XMLID_1384_" fill="#455A64" points="263.245,166.323 264.775,165.451 275.103,171.415 273.572,172.286 						"/>
					</g>
					<g id="XMLID_1380_">
						<polygon id="XMLID_1382_" fill="#455A64" points="266.834,164.25 267.716,163.741 278.043,169.704 277.161,170.213 						"/>
					</g>
					<g id="XMLID_1378_">
						<polygon id="XMLID_1379_" fill="#455A64" points="269.522,162.677 271.304,161.668 281.631,167.632 279.849,168.64 						"/>
					</g>
					<g id="XMLID_1376_">
						<polygon id="XMLID_1377_" fill="#455A64" points="274.011,160.105 274.893,159.596 285.22,165.559 284.338,166.068 						"/>
					</g>
					<g id="XMLID_1373_">
						<polygon id="XMLID_1375_" fill="#455A64" points="276.574,158.6 278.481,157.523 288.809,163.486 286.901,164.563 						"/>
					</g>
					<g id="XMLID_1370_">
						<polygon id="XMLID_1371_" fill="#455A64" points="281.188,155.96 282.07,155.451 292.397,161.414 291.516,161.922 						"/>
					</g>
					<g id="XMLID_1368_">
						<polygon id="XMLID_1369_" fill="#455A64" points="283.225,154.771 283.666,154.516 293.993,160.48 293.552,160.734 						"/>
					</g>
					<g id="XMLID_1366_">
						<polygon id="XMLID_1367_" fill="#455A64" points="279.603,156.934 280.044,156.679 290.371,162.642 289.93,162.897 						"/>
					</g>
					<g id="XMLID_1364_">
						<polygon id="XMLID_1365_" fill="#455A64" points="272.334,161.085 272.774,160.831 283.102,166.794 282.661,167.048 						"/>
					</g>
					<g id="XMLID_1362_">
						<polygon id="XMLID_1363_" fill="#455A64" points="268.383,163.377 268.824,163.122 279.151,169.085 278.71,169.339 						"/>
					</g>
					<g id="XMLID_1360_">
						<polygon id="XMLID_1361_" fill="#455A64" points="265.585,165.046 266.026,164.791 276.353,170.754 275.913,171.008 						"/>
					</g>
					<g id="XMLID_1357_">
						<polygon id="XMLID_1359_" fill="#455A64" points="261.654,167.229 262.095,166.974 272.423,172.937 271.982,173.191 						"/>
					</g>
					<g id="XMLID_1353_">
						<polygon id="XMLID_1355_" fill="#455A64" points="284.777,153.887 285.659,153.378 295.986,159.341 295.104,159.85 						"/>
					</g>
				</g>
			</g>
			<g id="XMLID_4740_">
				<polygon id="XMLID_4741_" fill="#27DEBF" points="339.246,281.572 248.248,228.921 248.248,168.523 339.246,221.174 				"/>
			</g>
			<g id="XMLID_4558_">
				<polygon id="XMLID_4564_" fill="#27DEBF" points="339.246,281.572 419.663,235.057 419.663,174.659 339.247,221.174 				"/>
				<polygon id="XMLID_4557_" opacity="0.1" points="339.246,281.572 419.663,235.057 419.663,174.659 339.247,221.174 				"/>
			</g>
			<g>
				<g id="XMLID_4554_">
					<polygon id="XMLID_4555_" fill="#37474F" points="383.39,204.778 377.476,208.193 377.476,199.015 383.39,195.601 					"/>
				</g>
				<g id="XMLID_4547_">
					<polygon id="XMLID_276_" fill="#455A64" points="377.476,199.016 286.478,146.366 292.392,142.951 383.39,195.601 					"/>
				</g>
			</g>
			<g>
				<g id="XMLID_1264_">
					<g id="XMLID_1290_">
						<path id="XMLID_1291_" fill="#455A64" d="M305.895,252.678c-1.184-0.684-2.112-2.438-2.112-3.992v-6.111l4.288,2.518
							l0.279-0.05v0.405c0,0.003,0,0.007,0,0.011v5.469c0,0.87-0.306,1.548-0.838,1.855c-0.206,0.118-0.432,0.177-0.672,0.177
							C306.54,252.96,306.217,252.865,305.895,252.678z M306.371,246.094l-0.313,2.144h-1.587v0.448c0,1.288,0.81,2.843,1.768,3.398
							c0.253,0.143,0.618,0.281,0.93,0.102c0.314-0.181,0.495-0.641,0.495-1.259v-5.064L306.371,246.094z M305.762,245.503
							l1.266-0.225l-2.558-1.503v3.776h0.992L305.762,245.503z"/>
					</g>
					<g id="XMLID_1288_">
						<path id="XMLID_1289_" fill="#455A64" d="M306.067,257.32c0.19,0,0.344-0.154,0.344-0.344v-4.594
							c0-0.19-0.154-0.344-0.344-0.344c-0.19,0-0.344,0.154-0.344,0.344v4.594C305.723,257.166,305.877,257.32,306.067,257.32z"/>
					</g>
					<g id="XMLID_1265_">
						<path id="XMLID_1285_" fill="#455A64" d="M308.064,258.471c0.118,0,0.235-0.061,0.297-0.172
							c0.095-0.165,0.039-0.374-0.125-0.469l-3.994-2.305c-0.161-0.098-0.375-0.043-0.469,0.126
							c-0.095,0.165-0.039,0.374,0.125,0.469l3.994,2.305C307.946,258.457,308.005,258.471,308.064,258.471z"/>
					</g>
				</g>
				<g id="XMLID_948_">
					<g id="XMLID_1262_">
						<path id="XMLID_1263_" fill="#455A64" d="M320.032,265.572c0.134,0,0.262-0.032,0.376-0.097
							c0.262-0.15,0.412-0.451,0.412-0.827v-0.942c0-0.19-0.154-0.344-0.344-0.344c-0.19,0-0.344,0.154-0.344,0.344v0.942
							c0,0.141-0.039,0.215-0.066,0.231c-0.027,0.014-0.108,0.009-0.224-0.059c-0.303-0.179-0.639-0.861-0.639-1.555v-6.11
							c0-0.19-0.154-0.344-0.344-0.344c-0.19,0-0.344,0.154-0.344,0.344v6.11c0,0.895,0.419,1.818,0.976,2.146
							C319.674,265.518,319.858,265.572,320.032,265.572z"/>
					</g>
					<g id="XMLID_1236_">
						<path id="XMLID_1238_" fill="#455A64" d="M314.513,254.951v-0.199c0-1.431,0.5-2.508,1.41-3.033
							c0.906-0.525,2.092-0.419,3.333,0.296c2.425,1.4,4.397,4.818,4.397,7.62v0.596L314.513,254.951z M316.267,252.315
							c-0.648,0.374-1.023,1.166-1.062,2.242l7.729,4.464c-0.254-2.45-1.961-5.221-4.021-6.409
							c-0.612-0.354-1.197-0.533-1.716-0.533C316.854,252.078,316.541,252.156,316.267,252.315z"/>
					</g>
				</g>
				<g id="XMLID_801_">
					<g id="XMLID_816_">
						<g id="XMLID_819_">
							<path id="XMLID_820_" fill="#455A64" d="M333.856,273.285c0.19,0,0.344-0.154,0.344-0.344v-11.702
								c0-0.19-0.154-0.344-0.344-0.344c-0.19,0-0.344,0.154-0.344,0.344v11.702C333.512,273.131,333.666,273.285,333.856,273.285z"
								/>
						</g>
						<g id="XMLID_817_">
							<path id="XMLID_818_" fill="#455A64" d="M334.861,263.908c0.047,0,0.091-0.009,0.136-0.029
								c0.176-0.075,0.254-0.278,0.179-0.452l-1.224-2.827l-1.365,1.577c-0.125,0.143-0.109,0.36,0.034,0.484
								c0.147,0.124,0.362,0.108,0.485-0.035l0.649-0.749l0.79,1.823C334.601,263.83,334.728,263.908,334.861,263.908z"/>
						</g>
					</g>
					<g id="XMLID_802_">
						<g id="XMLID_814_">
							<path id="XMLID_815_" fill="#455A64" d="M330.675,271.472c0.19,0,0.344-0.154,0.344-0.344v-11.702
								c0-0.19-0.154-0.344-0.344-0.344c-0.19,0-0.344,0.154-0.344,0.344v11.702C330.331,271.318,330.485,271.472,330.675,271.472z"
								/>
						</g>
						<g id="XMLID_805_">
							<path id="XMLID_807_" fill="#455A64" d="M331.681,262.095c0.047,0,0.091-0.009,0.136-0.029
								c0.175-0.075,0.254-0.278,0.179-0.452l-1.224-2.826l-1.365,1.576c-0.125,0.143-0.109,0.36,0.034,0.484
								c0.147,0.123,0.362,0.109,0.486-0.035l0.648-0.749l0.79,1.824C331.422,262.017,331.549,262.095,331.681,262.095z"/>
						</g>
					</g>
				</g>
			</g>
			<g>
				<g id="XMLID_786_">
					<path id="XMLID_794_" fill="#FAFAFA" d="M276.038,223.452l0.001,15.148c0,0.584-0.41,0.82-0.915,0.528l-23.649-13.653
						c-0.505-0.292-0.915-1.001-0.915-1.585l0.001-15.157c0-0.583,0.41-0.82,0.915-0.528l23.648,13.662
						C275.628,222.159,276.038,222.869,276.038,223.452z"/>
				</g>
				<g id="XMLID_277_">
					<g id="XMLID_780_">
						<polygon id="XMLID_785_" fill="#455A64" points="252.025,210.375 252.788,210.816 252.788,224.586 252.025,224.145 						"/>
					</g>
					<g id="XMLID_778_">
						<polygon id="XMLID_779_" fill="#455A64" points="255.133,212.169 256.45,212.943 256.449,226.713 255.133,225.939 						"/>
					</g>
					<g id="XMLID_758_">
						<polygon id="XMLID_760_" fill="#455A64" points="258.241,213.963 259.005,214.404 259.005,228.174 258.241,227.733 						"/>
					</g>
					<g id="XMLID_741_">
						<polygon id="XMLID_746_" fill="#455A64" points="260.585,215.291 262.114,216.197 262.113,229.968 260.585,229.061 						"/>
					</g>
					<g id="XMLID_735_">
						<polygon id="XMLID_736_" fill="#455A64" points="264.458,217.55 265.222,217.991 265.222,231.761 264.458,231.321 						"/>
					</g>
					<g id="XMLID_733_">
						<polygon id="XMLID_734_" fill="#455A64" points="266.697,218.814 268.33,219.785 268.33,233.555 266.697,232.584 						"/>
					</g>
					<g id="XMLID_727_">
						<polygon id="XMLID_730_" fill="#455A64" points="270.675,221.138 271.439,221.579 271.438,235.349 270.675,234.908 						"/>
					</g>
					<g id="XMLID_722_">
						<polygon id="XMLID_725_" fill="#455A64" points="272.448,222.147 272.83,222.367 272.83,236.138 272.448,235.917 						"/>
					</g>
					<g id="XMLID_712_">
						<polygon id="XMLID_719_" fill="#455A64" points="269.258,220.388 269.64,220.608 269.639,234.378 269.258,234.158 						"/>
					</g>
					<g id="XMLID_703_">
						<polygon id="XMLID_708_" fill="#455A64" points="262.997,216.72 263.378,216.941 263.378,230.711 262.997,230.491 						"/>
					</g>
					<g id="XMLID_701_">
						<polygon id="XMLID_702_" fill="#455A64" points="259.568,214.752 259.95,214.973 259.949,228.743 259.568,228.523 						"/>
					</g>
					<g id="XMLID_681_">
						<polygon id="XMLID_700_" fill="#455A64" points="257.104,213.392 257.486,213.613 257.486,227.383 257.104,227.163 						"/>
					</g>
					<g id="XMLID_471_">
						<polygon id="XMLID_671_" fill="#455A64" points="253.765,211.365 254.147,211.585 254.146,225.355 253.765,225.135 						"/>
					</g>
					<g id="XMLID_402_">
						<polygon id="XMLID_470_" fill="#455A64" points="273.784,222.932 274.547,223.372 274.547,237.143 273.784,236.702 						"/>
					</g>
				</g>
			</g>
		</g>
	</g>
	<g id="Box_9_">
		<polygon id="Shadow_34_" opacity="0.1" points="246.81,167.694 333.959,218.117 402.253,178.688 314.947,128.282 		"/>
		<g id="Box_4_">
			<g id="XMLID_2436_">
				<polygon id="XMLID_2441_" fill="#27DEBF" points="242.78,140.165 315.896,97.952 401.199,147.201 328.083,189.415 				"/>
				<polygon id="XMLID_2438_" opacity="0.1" points="242.78,140.165 315.896,97.952 401.199,147.201 328.083,189.415 				"/>
			</g>
			<g>
				<g id="XMLID_2431_">
					<path id="XMLID_2433_" fill="#FAFAFA" d="M281.325,123.688l24.189,13.935c0.438,0.253,0.319,0.73-0.264,1.067l-27.308,15.767
						c-0.583,0.337-1.411,0.405-1.849,0.153l-24.195-13.941c-0.438-0.253-0.319-0.73,0.264-1.067l27.313-15.761
						C280.06,123.503,280.888,123.435,281.325,123.688z"/>
				</g>
				<g>
					<g>
						<path fill="#E0E0E0" d="M269.108,147.4c-0.172,0-0.341-0.09-0.433-0.25c-0.139-0.239-0.057-0.545,0.183-0.683l22.671-13.089
							c0.238-0.14,0.545-0.057,0.683,0.183c0.139,0.239,0.057,0.545-0.183,0.683l-22.671,13.089
							C269.279,147.379,269.193,147.4,269.108,147.4z"/>
					</g>
					<g>
						<path fill="#E0E0E0" d="M271.625,148.842c-0.172,0-0.341-0.09-0.433-0.25c-0.139-0.239-0.057-0.545,0.183-0.683l22.671-13.089
							c0.237-0.139,0.545-0.058,0.683,0.183c0.139,0.239,0.057,0.545-0.183,0.683l-22.671,13.089
							C271.796,148.82,271.711,148.842,271.625,148.842z"/>
					</g>
					<g>
						<path fill="#E0E0E0" d="M274.142,150.284c-0.172,0-0.341-0.09-0.433-0.25c-0.139-0.239-0.057-0.545,0.183-0.683l22.671-13.089
							c0.237-0.139,0.545-0.057,0.683,0.183c0.139,0.239,0.057,0.545-0.183,0.683l-22.671,13.089
							C274.313,150.263,274.227,150.284,274.142,150.284z"/>
					</g>
					<g>
						<path fill="#E0E0E0" d="M276.66,151.727c-0.172,0-0.341-0.09-0.433-0.25c-0.139-0.239-0.057-0.545,0.183-0.683l22.671-13.089
							c0.238-0.14,0.545-0.057,0.683,0.183c0.139,0.239,0.057,0.545-0.183,0.683l-22.671,13.089
							C276.831,151.705,276.745,151.727,276.66,151.727z"/>
					</g>
				</g>
				<g id="XMLID_2131_">
					<g id="XMLID_2415_">
						<polygon id="XMLID_2429_" fill="#455A64" points="254.187,140.037 255.069,139.528 265.396,145.491 264.514,146 						"/>
					</g>
					<g id="XMLID_2342_">
						<polygon id="XMLID_2401_" fill="#455A64" points="257.775,137.965 259.306,137.093 269.633,143.056 268.103,143.927 						"/>
					</g>
					<g id="XMLID_2226_">
						<polygon id="XMLID_2227_" fill="#455A64" points="261.364,135.892 262.246,135.383 272.574,141.346 271.692,141.855 						"/>
					</g>
					<g id="XMLID_2213_">
						<polygon id="XMLID_2224_" fill="#455A64" points="264.052,134.319 265.835,133.31 276.162,139.273 274.38,140.282 						"/>
					</g>
					<g id="XMLID_2201_">
						<polygon id="XMLID_2202_" fill="#455A64" points="268.541,131.747 269.423,131.237 279.751,137.201 278.869,137.71 						"/>
					</g>
					<g id="XMLID_2195_">
						<polygon id="XMLID_2200_" fill="#455A64" points="271.104,130.242 273.012,129.165 283.339,135.128 281.432,136.205 						"/>
					</g>
					<g id="XMLID_2168_">
						<polygon id="XMLID_2174_" fill="#455A64" points="275.719,127.601 276.601,127.092 286.928,133.055 286.046,133.564 						"/>
					</g>
					<g id="XMLID_2165_">
						<polygon id="XMLID_2166_" fill="#455A64" points="277.755,126.413 278.197,126.158 288.524,132.121 288.083,132.376 						"/>
					</g>
					<g id="XMLID_2147_">
						<polygon id="XMLID_2149_" fill="#455A64" points="274.134,128.576 274.575,128.321 284.902,134.284 284.461,134.538 						"/>
					</g>
					<g id="XMLID_2141_">
						<polygon id="XMLID_2143_" fill="#455A64" points="266.864,132.727 267.305,132.473 277.632,138.436 277.192,138.69 						"/>
					</g>
					<g id="XMLID_2138_">
						<polygon id="XMLID_2139_" fill="#455A64" points="262.914,135.018 263.355,134.764 273.682,140.727 273.241,140.981 						"/>
					</g>
					<g id="XMLID_2136_">
						<polygon id="XMLID_2137_" fill="#455A64" points="260.116,136.687 260.557,136.433 270.884,142.396 270.444,142.65 						"/>
					</g>
					<g id="XMLID_2134_">
						<polygon id="XMLID_2135_" fill="#455A64" points="256.185,138.871 256.626,138.616 266.953,144.579 266.513,144.833 						"/>
					</g>
					<g id="XMLID_2132_">
						<polygon id="XMLID_2133_" fill="#455A64" points="279.308,125.529 280.189,125.02 290.517,130.983 289.635,131.492 						"/>
					</g>
				</g>
			</g>
			<g id="XMLID_2107_">
				<polygon id="XMLID_2130_" fill="#27DEBF" points="328.082,217.557 242.78,168.307 242.779,140.165 328.082,189.414 				"/>
			</g>
			<g id="XMLID_2457_" opacity="0.2">
				<polygon id="XMLID_2461_" points="328.082,217.557 242.78,168.307 242.779,140.165 328.082,189.414 				"/>
			</g>
			<g id="XMLID_2100_">
				<polygon id="XMLID_2104_" fill="#27DEBF" points="328.083,217.557 401.199,175.343 401.199,147.201 328.083,189.415 				"/>
				<polygon id="XMLID_2103_" opacity="0.3" points="328.083,217.557 401.199,175.343 401.199,147.201 328.083,189.415 				"/>
			</g>
			<g>
				<g id="XMLID_2097_">
					<polygon id="XMLID_2099_" fill="#37474F" points="372.226,173.019 366.312,176.433 366.312,167.256 372.226,163.841 					"/>
				</g>
				<g id="XMLID_2094_">
					<polygon id="XMLID_2095_" fill="#455A64" points="366.312,167.257 281.009,118.007 286.923,114.592 372.226,163.841 					"/>
				</g>
			</g>
			<g>
				<g id="XMLID_2081_">
					<g id="XMLID_2088_">
						<path id="XMLID_2089_" fill="#455A64" d="M294.731,188.663c-1.184-0.684-2.112-2.438-2.112-3.992v-6.111l4.288,2.518
							l0.279-0.05v0.405c0,0.003,0,0.007,0,0.011v5.468c0,0.87-0.306,1.548-0.838,1.856c-0.206,0.118-0.432,0.177-0.672,0.177
							C295.376,188.945,295.054,188.85,294.731,188.663z M295.208,182.079l-0.313,2.144h-1.587v0.448
							c0,1.288,0.81,2.843,1.768,3.398c0.253,0.143,0.618,0.281,0.93,0.102c0.314-0.181,0.495-0.641,0.495-1.259v-5.064
							L295.208,182.079z M294.599,181.488l1.266-0.226l-2.558-1.503v3.776h0.992L294.599,181.488z"/>
					</g>
					<g id="XMLID_2086_">
						<path id="XMLID_2087_" fill="#455A64" d="M294.904,193.305c0.19,0,0.344-0.154,0.344-0.344v-4.594
							c0-0.19-0.154-0.344-0.344-0.344c-0.19,0-0.344,0.154-0.344,0.344v4.594C294.56,193.15,294.713,193.305,294.904,193.305z"/>
					</g>
					<g id="XMLID_2084_">
						<path id="XMLID_2085_" fill="#455A64" d="M296.901,194.456c0.118,0,0.235-0.061,0.297-0.172
							c0.095-0.165,0.039-0.374-0.125-0.469l-3.994-2.305c-0.161-0.099-0.375-0.043-0.469,0.125
							c-0.095,0.165-0.039,0.374,0.125,0.469l3.994,2.305C296.782,194.442,296.841,194.456,296.901,194.456z"/>
					</g>
				</g>
				<g id="XMLID_2040_">
					<g id="XMLID_2046_">
						<path id="XMLID_2077_" fill="#455A64" d="M308.869,201.557c0.134,0,0.261-0.032,0.376-0.097
							c0.262-0.15,0.412-0.451,0.412-0.827v-0.942c0-0.19-0.154-0.344-0.344-0.344c-0.19,0-0.344,0.154-0.344,0.344v0.942
							c0,0.141-0.039,0.215-0.066,0.231c-0.027,0.014-0.108,0.009-0.224-0.059c-0.303-0.179-0.639-0.861-0.639-1.555v-6.11
							c0-0.19-0.154-0.344-0.344-0.344c-0.19,0-0.344,0.154-0.344,0.344v6.11c0,0.895,0.419,1.818,0.976,2.146
							C308.51,201.503,308.695,201.557,308.869,201.557z"/>
					</g>
					<g id="XMLID_2041_">
						<path id="XMLID_2043_" fill="#455A64" d="M303.35,190.936v-0.199c0-1.431,0.5-2.508,1.41-3.033
							c0.906-0.525,2.092-0.419,3.333,0.296c2.425,1.4,4.397,4.818,4.397,7.62v0.597L303.35,190.936z M305.104,188.3
							c-0.648,0.374-1.023,1.166-1.062,2.242l7.729,4.464c-0.254-2.45-1.961-5.22-4.021-6.409c-0.613-0.354-1.197-0.533-1.716-0.533
							C305.691,188.063,305.378,188.141,305.104,188.3z"/>
					</g>
				</g>
				<g id="XMLID_1922_">
					<g id="XMLID_1990_">
						<g id="XMLID_2038_">
							<path id="XMLID_2039_" fill="#455A64" d="M322.693,209.27c0.19,0,0.344-0.154,0.344-0.344v-11.702
								c0-0.19-0.154-0.344-0.344-0.344c-0.19,0-0.344,0.154-0.344,0.344v11.702C322.349,209.116,322.503,209.27,322.693,209.27z"/>
						</g>
						<g id="XMLID_2030_">
							<path id="XMLID_2031_" fill="#455A64" d="M323.697,199.893c0.047,0,0.091-0.009,0.136-0.029
								c0.176-0.075,0.254-0.278,0.179-0.452l-1.223-2.827l-1.365,1.577c-0.125,0.143-0.109,0.36,0.034,0.484
								c0.147,0.124,0.362,0.109,0.486-0.035l0.648-0.749l0.79,1.823C323.437,199.815,323.565,199.893,323.697,199.893z"/>
						</g>
					</g>
					<g id="XMLID_1943_">
						<g id="XMLID_1988_">
							<path id="XMLID_1989_" fill="#455A64" d="M319.511,207.457c0.19,0,0.344-0.154,0.344-0.344v-11.702
								c0-0.19-0.154-0.344-0.344-0.344c-0.19,0-0.344,0.154-0.344,0.344v11.702C319.167,207.303,319.321,207.457,319.511,207.457z"
								/>
						</g>
						<g id="XMLID_1979_">
							<path id="XMLID_1981_" fill="#455A64" d="M320.518,198.079c0.047,0,0.091-0.009,0.136-0.029
								c0.175-0.075,0.254-0.278,0.179-0.452l-1.223-2.826l-1.365,1.576c-0.125,0.143-0.109,0.36,0.034,0.484
								c0.147,0.123,0.362,0.109,0.486-0.035l0.648-0.749l0.79,1.824C320.258,198.001,320.385,198.079,320.518,198.079z"/>
						</g>
					</g>
				</g>
			</g>
			<g>
				<g id="XMLID_1912_">
					<path id="XMLID_1914_" fill="#FAFAFA" d="M270.569,162.839l0.001,15.148c0,0.584-0.409,0.82-0.915,0.528l-23.649-13.653
						c-0.505-0.292-0.915-1.001-0.915-1.585l0.001-15.157c0-0.583,0.41-0.82,0.915-0.528l23.648,13.662
						C270.16,161.546,270.569,162.255,270.569,162.839z"/>
				</g>
				<g id="XMLID_1431_">
					<g id="XMLID_1909_">
						<polygon id="XMLID_1910_" fill="#455A64" points="246.556,149.761 247.32,150.202 247.319,163.973 246.556,163.532 						"/>
					</g>
					<g id="XMLID_1906_">
						<polygon id="XMLID_1907_" fill="#455A64" points="249.664,151.555 250.981,152.329 250.98,166.1 249.664,165.325 						"/>
					</g>
					<g id="XMLID_1901_">
						<polygon id="XMLID_1902_" fill="#455A64" points="252.773,153.349 253.537,153.79 253.536,167.56 252.773,167.119 						"/>
					</g>
					<g id="XMLID_1877_">
						<polygon id="XMLID_1878_" fill="#455A64" points="255.117,154.678 256.645,155.584 256.645,169.354 255.117,168.448 						"/>
					</g>
					<g id="XMLID_1845_">
						<polygon id="XMLID_1874_" fill="#455A64" points="258.99,156.936 259.754,157.377 259.753,171.148 258.989,170.707 						"/>
					</g>
					<g id="XMLID_1843_">
						<polygon id="XMLID_1844_" fill="#455A64" points="261.228,158.2 262.862,159.171 262.861,172.941 261.228,171.97 						"/>
					</g>
					<g id="XMLID_1812_">
						<polygon id="XMLID_1813_" fill="#455A64" points="265.207,160.524 265.97,160.965 265.97,174.735 265.206,174.294 						"/>
					</g>
					<g id="XMLID_1736_">
						<polygon id="XMLID_1811_" fill="#455A64" points="266.98,161.533 267.362,161.754 267.361,175.524 266.979,175.303 						"/>
					</g>
					<g id="XMLID_1693_">
						<polygon id="XMLID_1694_" fill="#455A64" points="263.789,159.774 264.171,159.995 264.171,173.765 263.789,173.544 						"/>
					</g>
					<g id="XMLID_1489_">
						<polygon id="XMLID_1578_" fill="#455A64" points="257.528,156.107 257.91,156.327 257.909,170.097 257.528,169.877 						"/>
					</g>
					<g id="XMLID_1487_">
						<polygon id="XMLID_1488_" fill="#455A64" points="254.099,154.139 254.481,154.359 254.48,168.129 254.099,167.909 						"/>
					</g>
					<g id="XMLID_1483_">
						<polygon id="XMLID_1486_" fill="#455A64" points="251.636,152.779 252.018,152.999 252.017,166.769 251.636,166.549 						"/>
					</g>
					<g id="XMLID_1481_">
						<polygon id="XMLID_1482_" fill="#455A64" points="248.296,150.751 248.678,150.972 248.678,164.742 248.296,164.521 						"/>
					</g>
					<g id="XMLID_1463_">
						<polygon id="XMLID_1470_" fill="#455A64" points="268.315,162.318 269.078,162.759 269.078,176.529 268.315,176.088 						"/>
					</g>
				</g>
			</g>
		</g>
	</g>
	<g id="Box_8_">
		<polygon id="Shadow_43_" opacity="0.1" points="283.53,332.264 216.72,370.79 166.712,341.883 233.675,303.442 		"/>
		<g id="Box_5_">
			<g id="XMLID_3233_">
				<polygon id="XMLID_3235_" fill="#27DEBF" points="172.813,218.745 233.743,183.566 278.425,209.363 217.495,244.541 				"/>
				<polygon id="XMLID_3234_" opacity="0.1" points="172.813,218.745 233.743,183.566 278.425,209.363 217.495,244.541 				"/>
			</g>
			<g>
				<g id="XMLID_3228_">
					<path id="XMLID_3232_" fill="#FAFAFA" d="M233.15,188.621l-18.702,10.774c-0.338,0.195-0.247,0.565,0.204,0.825l21.113,12.19
						c0.451,0.26,1.091,0.313,1.429,0.118L255.9,201.75c0.338-0.195,0.247-0.565-0.204-0.825l-21.117-12.186
						C234.128,188.479,233.488,188.426,233.15,188.621z"/>
				</g>
				<g>
					<g>
						<path fill="#E0E0E0" d="M242.596,206.955c0.133,0,0.264-0.07,0.335-0.193c0.107-0.185,0.044-0.421-0.141-0.528l-17.528-10.12
							c-0.184-0.108-0.421-0.044-0.528,0.141c-0.107,0.185-0.044,0.421,0.141,0.528l17.528,10.119
							C242.464,206.938,242.53,206.955,242.596,206.955z"/>
					</g>
					<g>
						<path fill="#E0E0E0" d="M240.649,208.069c0.133,0,0.264-0.07,0.335-0.193c0.107-0.185,0.044-0.421-0.141-0.528l-17.528-10.119
							c-0.183-0.107-0.421-0.045-0.528,0.141c-0.107,0.185-0.044,0.421,0.141,0.528l17.528,10.12
							C240.517,208.052,240.583,208.069,240.649,208.069z"/>
					</g>
					<g>
						<path fill="#E0E0E0" d="M238.704,209.184c0.133,0,0.263-0.069,0.334-0.193c0.107-0.185,0.044-0.421-0.141-0.528l-17.528-10.12
							c-0.183-0.107-0.421-0.044-0.528,0.141c-0.107,0.185-0.044,0.421,0.141,0.528l17.528,10.119
							C238.571,209.167,238.638,209.184,238.704,209.184z"/>
					</g>
					<g>
						<path fill="#E0E0E0" d="M236.757,210.299c0.133,0,0.264-0.07,0.335-0.193c0.107-0.185,0.044-0.421-0.141-0.528l-17.528-10.119
							c-0.184-0.108-0.421-0.044-0.528,0.141c-0.107,0.185-0.044,0.421,0.141,0.528l17.528,10.119
							C236.625,210.283,236.691,210.299,236.757,210.299z"/>
					</g>
				</g>
				<g id="XMLID_2996_">
					<g id="XMLID_3204_">
						<polygon id="XMLID_3205_" fill="#455A64" points="254.132,201.262 253.45,200.868 245.465,205.478 246.147,205.872 						"/>
					</g>
					<g id="XMLID_3202_">
						<polygon id="XMLID_3203_" fill="#455A64" points="251.357,199.66 250.174,198.986 242.189,203.596 243.373,204.269 						"/>
					</g>
					<g id="XMLID_3200_">
						<polygon id="XMLID_3201_" fill="#455A64" points="248.583,198.057 247.9,197.663 239.916,202.273 240.598,202.667 						"/>
					</g>
					<g id="XMLID_3198_">
						<polygon id="XMLID_3199_" fill="#455A64" points="246.504,196.841 245.126,196.061 237.142,200.671 238.52,201.451 						"/>
					</g>
					<g id="XMLID_3196_">
						<polygon id="XMLID_3197_" fill="#455A64" points="243.034,194.852 242.352,194.458 234.367,199.069 235.049,199.462 						"/>
					</g>
					<g id="XMLID_3194_">
						<polygon id="XMLID_3195_" fill="#455A64" points="241.052,193.689 239.577,192.856 231.593,197.466 233.067,198.299 						"/>
					</g>
					<g id="XMLID_3099_">
						<polygon id="XMLID_3193_" fill="#455A64" points="237.484,191.647 236.803,191.253 228.818,195.864 229.5,196.257 						"/>
					</g>
					<g id="XMLID_3094_">
						<polygon id="XMLID_3098_" fill="#455A64" points="235.91,190.728 235.569,190.531 227.585,195.142 227.925,195.338 						"/>
					</g>
					<g id="XMLID_3036_">
						<polygon id="XMLID_3044_" fill="#455A64" points="238.71,192.4 238.369,192.204 230.385,196.814 230.725,197.01 						"/>
					</g>
					<g id="XMLID_3011_">
						<polygon id="XMLID_3027_" fill="#455A64" points="244.33,195.61 243.989,195.413 236.005,200.023 236.346,200.22 						"/>
					</g>
					<g id="XMLID_3009_">
						<polygon id="XMLID_3010_" fill="#455A64" points="247.385,197.382 247.044,197.185 239.059,201.795 239.4,201.992 						"/>
					</g>
					<g id="XMLID_3001_">
						<polygon id="XMLID_3002_" fill="#455A64" points="249.548,198.672 249.207,198.475 241.222,203.085 241.563,203.282 						"/>
					</g>
					<g id="XMLID_2999_">
						<polygon id="XMLID_3000_" fill="#455A64" points="252.587,200.36 252.246,200.163 244.261,204.773 244.602,204.97 						"/>
					</g>
					<g id="XMLID_2997_">
						<polygon id="XMLID_2998_" fill="#455A64" points="234.71,190.045 234.028,189.651 226.044,194.261 226.725,194.655 						"/>
					</g>
				</g>
			</g>
			<g id="XMLID_2994_">
				<polygon id="XMLID_2995_" fill="#27DEBF" points="217.495,366.512 172.813,340.715 172.813,218.744 217.495,244.541 				"/>
			</g>
			<g id="XMLID_2992_" opacity="0.2">
				<polygon id="XMLID_2993_" points="217.495,366.512 172.813,340.715 172.813,218.744 217.495,244.541 				"/>
			</g>
			<g id="XMLID_2989_">
				<polygon id="XMLID_2991_" fill="#27DEBF" points="217.495,366.512 278.426,331.334 278.425,209.363 217.495,244.541 				"/>
				<polygon id="XMLID_2990_" opacity="0.3" points="217.495,366.512 278.426,331.334 278.425,209.363 217.495,244.541 				"/>
			</g>
			<g>
				<g id="XMLID_2987_">
					<polygon id="XMLID_2988_" fill="#37474F" points="249.991,234.957 244.078,238.371 244.078,229.194 249.991,225.78 					"/>
				</g>
				<g id="XMLID_2985_">
					<polygon id="XMLID_2986_" fill="#455A64" points="244.078,229.195 199.396,203.398 205.309,199.983 249.991,225.78 					"/>
				</g>
			</g>
			<g>
				<g id="XMLID_2967_">
					<g id="XMLID_2980_">
						<path id="XMLID_2981_" fill="#455A64" d="M184.144,337.618c-1.184-0.684-2.112-2.438-2.112-3.992v-6.111l4.288,2.518
							l0.279-0.05v0.405c0,0.004,0,0.007,0,0.011v5.469c0,0.87-0.306,1.548-0.838,1.855c-0.206,0.118-0.432,0.177-0.672,0.177
							C184.788,337.9,184.466,337.805,184.144,337.618z M184.62,331.034l-0.313,2.144h-1.587v0.448c0,1.288,0.81,2.843,1.768,3.398
							c0.252,0.143,0.618,0.281,0.929,0.102c0.313-0.181,0.495-0.641,0.495-1.259v-5.064L184.62,331.034z M184.011,330.443
							l1.266-0.225l-2.558-1.503v3.776h0.992L184.011,330.443z"/>
					</g>
					<g id="XMLID_2978_">
						<path id="XMLID_2979_" fill="#455A64" d="M184.316,342.259c0.19,0,0.344-0.154,0.344-0.344v-4.594
							c0-0.19-0.154-0.344-0.344-0.344c-0.19,0-0.344,0.154-0.344,0.344v4.594C183.972,342.105,184.126,342.259,184.316,342.259z"/>
					</g>
					<g id="XMLID_2971_">
						<path id="XMLID_2977_" fill="#455A64" d="M186.313,343.411c0.118,0,0.235-0.061,0.297-0.172
							c0.095-0.165,0.04-0.374-0.125-0.469l-3.994-2.305c-0.161-0.098-0.375-0.043-0.469,0.126c-0.095,0.165-0.04,0.374,0.125,0.469
							l3.994,2.305C186.195,343.397,186.254,343.411,186.313,343.411z"/>
					</g>
				</g>
				<g id="XMLID_2916_">
					<g id="XMLID_2926_">
						<path id="XMLID_2959_" fill="#455A64" d="M198.281,350.512c0.134,0,0.262-0.032,0.376-0.097
							c0.261-0.15,0.412-0.451,0.412-0.827v-0.942c0-0.19-0.154-0.344-0.344-0.344s-0.344,0.154-0.344,0.344v0.942
							c0,0.141-0.039,0.215-0.066,0.231c-0.027,0.014-0.108,0.009-0.224-0.059c-0.303-0.179-0.639-0.862-0.639-1.555v-6.11
							c0-0.19-0.154-0.344-0.344-0.344c-0.19,0-0.344,0.154-0.344,0.344v6.11c0,0.895,0.419,1.818,0.976,2.146
							C197.923,350.458,198.107,350.512,198.281,350.512z"/>
					</g>
					<g id="XMLID_2918_">
						<path id="XMLID_2919_" fill="#455A64" d="M192.762,339.891v-0.199c0-1.431,0.5-2.508,1.41-3.033
							c0.906-0.525,2.092-0.419,3.333,0.296c2.425,1.4,4.397,4.818,4.397,7.62v0.596L192.762,339.891z M194.516,337.255
							c-0.648,0.374-1.023,1.166-1.062,2.242l7.729,4.464c-0.254-2.45-1.961-5.22-4.021-6.409c-0.613-0.354-1.197-0.533-1.716-0.533
							C195.103,337.018,194.79,337.096,194.516,337.255z"/>
					</g>
				</g>
				<g id="XMLID_2868_">
					<g id="XMLID_2874_">
						<g id="XMLID_2890_">
							<path id="XMLID_2905_" fill="#455A64" d="M212.105,358.225c0.19,0,0.344-0.154,0.344-0.344v-11.702
								c0-0.19-0.154-0.344-0.344-0.344c-0.19,0-0.344,0.154-0.344,0.344v11.702C211.761,358.071,211.915,358.225,212.105,358.225z"
								/>
						</g>
						<g id="XMLID_2875_">
							<path id="XMLID_2876_" fill="#455A64" d="M213.109,348.848c0.047,0,0.091-0.009,0.136-0.029
								c0.176-0.075,0.254-0.278,0.179-0.452l-1.223-2.827l-1.365,1.577c-0.126,0.143-0.109,0.36,0.034,0.484
								c0.147,0.124,0.362,0.108,0.486-0.035l0.648-0.749l0.79,1.823C212.85,348.77,212.977,348.848,213.109,348.848z"/>
						</g>
					</g>
					<g id="XMLID_2869_">
						<g id="XMLID_2872_">
							<path id="XMLID_2873_" fill="#455A64" d="M208.924,356.412c0.19,0,0.344-0.154,0.344-0.344v-11.702
								c0-0.19-0.154-0.344-0.344-0.344c-0.19,0-0.344,0.154-0.344,0.344v11.702C208.58,356.258,208.734,356.412,208.924,356.412z"
								/>
						</g>
						<g id="XMLID_2870_">
							<path id="XMLID_2871_" fill="#455A64" d="M209.93,347.034c0.047,0,0.091-0.009,0.136-0.029
								c0.175-0.075,0.254-0.278,0.179-0.452l-1.224-2.826l-1.365,1.576c-0.125,0.143-0.109,0.36,0.034,0.484
								c0.147,0.123,0.362,0.109,0.486-0.035l0.648-0.749l0.79,1.824C209.67,346.957,209.798,347.034,209.93,347.034z"/>
						</g>
					</g>
				</g>
			</g>
			<g>
				<g id="XMLID_2866_">
					<path id="XMLID_2867_" fill="#FAFAFA" d="M213.432,320.876l0.001,15.148c0,0.583-0.41,0.82-0.915,0.528l-23.649-13.653
						c-0.505-0.292-0.915-1.001-0.915-1.585l0.001-15.157c0-0.583,0.41-0.82,0.915-0.528l23.648,13.662
						C213.023,319.583,213.432,320.293,213.432,320.876z"/>
				</g>
				<g id="XMLID_2462_">
					<g id="XMLID_2864_">
						<polygon id="XMLID_2865_" fill="#455A64" points="189.419,307.799 190.183,308.24 190.182,322.01 189.419,321.569 						"/>
					</g>
					<g id="XMLID_2853_">
						<polygon id="XMLID_2862_" fill="#455A64" points="192.527,309.593 193.844,310.367 193.843,324.137 192.527,323.363 						"/>
					</g>
					<g id="XMLID_2851_">
						<polygon id="XMLID_2852_" fill="#455A64" points="195.636,311.387 196.4,311.828 196.399,325.598 195.636,325.157 						"/>
					</g>
					<g id="XMLID_2813_">
						<polygon id="XMLID_2847_" fill="#455A64" points="197.98,312.715 199.508,313.621 199.508,327.392 197.979,326.485 						"/>
					</g>
					<g id="XMLID_2811_">
						<polygon id="XMLID_2812_" fill="#455A64" points="201.853,314.974 202.617,315.415 202.616,329.185 201.852,328.745 						"/>
					</g>
					<g id="XMLID_2784_">
						<polygon id="XMLID_2810_" fill="#455A64" points="204.091,316.238 205.725,317.209 205.724,330.979 204.091,330.008 						"/>
					</g>
					<g id="XMLID_2776_">
						<polygon id="XMLID_2782_" fill="#455A64" points="208.07,318.562 208.833,319.003 208.833,332.773 208.069,332.332 						"/>
					</g>
					<g id="XMLID_2743_">
						<polygon id="XMLID_2775_" fill="#455A64" points="209.843,319.571 210.225,319.792 210.224,333.562 209.842,333.341 						"/>
					</g>
					<g id="XMLID_2648_">
						<polygon id="XMLID_2650_" fill="#455A64" points="206.652,317.812 207.034,318.032 207.034,331.803 206.652,331.582 						"/>
					</g>
					<g id="XMLID_2638_">
						<polygon id="XMLID_2639_" fill="#455A64" points="200.391,314.144 200.773,314.365 200.772,328.135 200.391,327.915 						"/>
					</g>
					<g id="XMLID_2636_">
						<polygon id="XMLID_2637_" fill="#455A64" points="196.962,312.177 197.344,312.397 197.343,326.167 196.962,325.947 						"/>
					</g>
					<g id="XMLID_2634_">
						<polygon id="XMLID_2635_" fill="#455A64" points="194.499,310.816 194.88,311.037 194.88,324.807 194.499,324.587 						"/>
					</g>
					<g id="XMLID_2563_">
						<polygon id="XMLID_2633_" fill="#455A64" points="191.159,308.789 191.541,309.009 191.541,322.78 191.159,322.559 						"/>
					</g>
					<g id="XMLID_2521_">
						<polygon id="XMLID_2562_" fill="#455A64" points="211.178,320.356 211.941,320.797 211.941,334.567 211.178,334.126 						"/>
					</g>
				</g>
			</g>
		</g>
	</g>
	<g id="Box_7_">
		<polygon id="Shadow_35_" opacity="0.1" points="338.167,363.773 271.356,402.299 220.058,372.758 287.021,334.317 		"/>
		<g id="Box_6_">
			<g id="XMLID_3779_">
				<polygon id="XMLID_3781_" fill="#27DEBF" points="227.815,313.121 288.746,277.943 333.427,303.739 272.497,338.918 				"/>
			</g>
			<g id="XMLID_3780_" opacity="0.3">
				<polygon id="XMLID_3784_" fill="#FFFFFF" points="227.815,313.121 288.746,277.943 333.427,303.739 272.497,338.918 				"/>
			</g>
			<g>
				<g id="XMLID_3777_">
					<path id="XMLID_3778_" fill="#FAFAFA" d="M288.152,282.997l-18.702,10.774c-0.338,0.195-0.247,0.565,0.204,0.825l21.112,12.19
						c0.451,0.26,1.091,0.313,1.429,0.118l18.706-10.778c0.338-0.195,0.247-0.565-0.204-0.825l-21.117-12.186
						C289.131,282.855,288.491,282.802,288.152,282.997z"/>
				</g>
				<g>
					<g>
						<path fill="#E0E0E0" d="M297.598,301.331c0.133,0,0.263-0.07,0.335-0.193c0.107-0.185,0.044-0.421-0.141-0.528l-17.528-10.119
							c-0.184-0.108-0.421-0.044-0.528,0.141c-0.107,0.185-0.044,0.421,0.141,0.528l17.528,10.119
							C297.466,301.314,297.532,301.331,297.598,301.331z"/>
					</g>
					<g>
						<path fill="#E0E0E0" d="M295.651,302.445c0.133,0,0.264-0.069,0.335-0.193c0.107-0.185,0.044-0.421-0.141-0.528
							l-17.528-10.119c-0.184-0.107-0.421-0.045-0.528,0.141c-0.107,0.185-0.044,0.421,0.141,0.528l17.528,10.12
							C295.519,302.429,295.586,302.445,295.651,302.445z"/>
					</g>
					<g>
						<path fill="#E0E0E0" d="M293.706,303.56c0.133,0,0.263-0.069,0.335-0.193c0.107-0.185,0.044-0.421-0.141-0.528l-17.528-10.12
							c-0.183-0.107-0.421-0.044-0.528,0.141c-0.107,0.185-0.044,0.421,0.141,0.528l17.528,10.119
							C293.574,303.544,293.64,303.56,293.706,303.56z"/>
					</g>
					<g>
						<path fill="#E0E0E0" d="M291.759,304.676c0.133,0,0.263-0.07,0.335-0.193c0.107-0.185,0.044-0.421-0.141-0.528l-17.528-10.12
							c-0.184-0.108-0.421-0.044-0.528,0.141c-0.107,0.185-0.044,0.421,0.141,0.528l17.528,10.12
							C291.627,304.659,291.694,304.676,291.759,304.676z"/>
					</g>
				</g>
				<g id="XMLID_3729_">
					<g id="XMLID_3775_">
						<polygon id="XMLID_3776_" fill="#455A64" points="309.134,295.638 308.452,295.244 300.468,299.855 301.149,300.248 						"/>
					</g>
					<g id="XMLID_3773_">
						<polygon id="XMLID_3774_" fill="#455A64" points="306.359,294.036 305.176,293.362 297.192,297.972 298.375,298.646 						"/>
					</g>
					<g id="XMLID_3771_">
						<polygon id="XMLID_3772_" fill="#455A64" points="303.585,292.433 302.903,292.039 294.918,296.65 295.6,297.043 						"/>
					</g>
					<g id="XMLID_3769_">
						<polygon id="XMLID_3770_" fill="#455A64" points="301.507,291.217 300.129,290.437 292.144,295.047 293.522,295.827 						"/>
					</g>
					<g id="XMLID_3767_">
						<polygon id="XMLID_3768_" fill="#455A64" points="298.036,289.228 297.354,288.835 289.37,293.445 290.051,293.838 						"/>
					</g>
					<g id="XMLID_3765_">
						<polygon id="XMLID_3766_" fill="#455A64" points="296.054,288.065 294.579,287.232 286.595,291.842 288.07,292.675 						"/>
					</g>
					<g id="XMLID_3762_">
						<polygon id="XMLID_3763_" fill="#455A64" points="292.487,286.023 291.805,285.63 283.821,290.24 284.502,290.633 						"/>
					</g>
					<g id="XMLID_3760_">
						<polygon id="XMLID_3761_" fill="#455A64" points="290.912,285.104 290.571,284.908 282.587,289.518 282.928,289.715 						"/>
					</g>
					<g id="XMLID_3758_">
						<polygon id="XMLID_3759_" fill="#455A64" points="293.712,286.777 293.371,286.58 285.387,291.19 285.728,291.387 						"/>
					</g>
					<g id="XMLID_3755_">
						<polygon id="XMLID_3757_" fill="#455A64" points="299.333,289.986 298.992,289.79 291.008,294.4 291.348,294.596 						"/>
					</g>
					<g id="XMLID_3752_">
						<polygon id="XMLID_3754_" fill="#455A64" points="302.387,291.758 302.046,291.561 294.062,296.171 294.402,296.368 						"/>
					</g>
					<g id="XMLID_3747_">
						<polygon id="XMLID_3751_" fill="#455A64" points="304.55,293.048 304.209,292.851 296.225,297.461 296.565,297.658 						"/>
					</g>
					<g id="XMLID_3734_">
						<polygon id="XMLID_3746_" fill="#455A64" points="307.589,294.736 307.248,294.539 299.264,299.15 299.604,299.346 						"/>
					</g>
					<g id="XMLID_3730_">
						<polygon id="XMLID_3732_" fill="#455A64" points="289.712,284.421 289.03,284.027 281.046,288.638 281.728,289.031 						"/>
					</g>
				</g>
			</g>
			<g id="XMLID_3726_">
				<polygon id="XMLID_3727_" fill="#27DEBF" points="272.497,398.267 227.815,372.47 227.815,313.12 272.497,338.917 				"/>
			</g>
			<g id="XMLID_3724_">
				<polygon id="XMLID_3725_" fill="#27DEBF" points="272.497,398.267 227.815,372.47 227.815,313.12 272.497,338.917 				"/>
			</g>
			<g id="XMLID_3717_">
				<polygon id="XMLID_3723_" fill="#27DEBF" points="272.497,398.268 333.428,363.09 333.427,303.739 272.497,338.918 				"/>
				<polygon id="XMLID_3719_" opacity="0.1" points="272.497,398.268 333.428,363.09 333.427,303.739 272.497,338.918 				"/>
			</g>
			<g>
				<g id="XMLID_3665_">
					<polygon id="XMLID_3666_" fill="#37474F" points="304.993,329.333 299.08,332.747 299.08,323.57 304.993,320.156 					"/>
				</g>
				<g id="XMLID_3659_">
					<polygon id="XMLID_3660_" fill="#455A64" points="299.08,323.571 254.398,297.774 260.312,294.359 304.993,320.156 					"/>
				</g>
			</g>
			<g>
				<g id="XMLID_3644_">
					<g id="XMLID_3654_">
						<path id="XMLID_3655_" fill="#455A64" d="M327.792,357.382c-0.158,0-0.307-0.039-0.442-0.117
							c-0.351-0.203-0.552-0.649-0.552-1.222v-3.603c0-0.002,0-0.005,0-0.007v-0.267l0.184,0.033l2.825-1.659v4.026
							c0,1.024-0.611,2.18-1.391,2.63C328.203,357.319,327.991,357.382,327.792,357.382z M327.251,352.707v3.336
							c0,0.407,0.119,0.71,0.326,0.829c0.205,0.118,0.446,0.027,0.612-0.067c0.631-0.366,1.165-1.39,1.165-2.239v-0.295h-1.046
							l-0.206-1.412L327.251,352.707z M328.7,353.818h0.654v-2.488l-1.685,0.99l0.834,0.149L328.7,353.818z"/>
					</g>
					<g id="XMLID_3652_">
						<path id="XMLID_3653_" fill="#455A64" d="M328.302,360.254c-0.125,0-0.227-0.102-0.227-0.227v-3.027
							c0-0.125,0.102-0.227,0.227-0.227c0.125,0,0.227,0.101,0.227,0.227v3.027C328.529,360.153,328.427,360.254,328.302,360.254z"
							/>
					</g>
					<g id="XMLID_3645_">
						<path id="XMLID_3647_" fill="#455A64" d="M326.986,361.013c-0.078,0-0.155-0.04-0.196-0.113
							c-0.063-0.108-0.026-0.247,0.082-0.309l2.632-1.519c0.106-0.065,0.247-0.028,0.309,0.083c0.063,0.108,0.026,0.247-0.083,0.309
							l-2.632,1.519C327.064,361.004,327.025,361.013,326.986,361.013z"/>
					</g>
				</g>
				<g id="XMLID_3595_">
					<g id="XMLID_3642_">
						<path id="XMLID_3643_" fill="#455A64" d="M319.102,365.691c-0.089,0-0.172-0.021-0.248-0.064
							c-0.172-0.099-0.271-0.297-0.271-0.545v-0.621c0-0.125,0.102-0.227,0.227-0.227c0.125,0,0.227,0.101,0.227,0.227v0.621
							c0,0.093,0.026,0.142,0.044,0.152c0.018,0.01,0.071,0.006,0.148-0.039c0.199-0.118,0.421-0.568,0.421-1.024v-4.025
							c0-0.125,0.102-0.227,0.227-0.227s0.227,0.102,0.227,0.227v4.025c0,0.59-0.276,1.198-0.643,1.414
							C319.338,365.656,319.216,365.691,319.102,365.691z"/>
					</g>
					<g id="XMLID_3597_">
						<path id="XMLID_3598_" fill="#455A64" d="M316.716,362.172v-0.393c0-1.846,1.299-4.098,2.897-5.02
							c0.818-0.471,1.599-0.541,2.196-0.195c0.6,0.346,0.929,1.056,0.929,1.998v0.131L316.716,362.172z M320.97,356.801
							c-0.342,0-0.727,0.118-1.13,0.351c-1.357,0.783-2.482,2.608-2.649,4.222l5.092-2.941c-0.026-0.709-0.273-1.23-0.7-1.477
							C321.401,356.852,321.195,356.801,320.97,356.801z"/>
					</g>
				</g>
				<g id="XMLID_3566_">
					<g id="XMLID_3574_">
						<g id="XMLID_3578_">
							<path id="XMLID_3594_" fill="#455A64" d="M309.995,370.772c-0.125,0-0.227-0.101-0.227-0.227v-7.709
								c0-0.125,0.101-0.227,0.227-0.227c0.125,0,0.227,0.102,0.227,0.227v7.709C310.221,370.671,310.12,370.772,309.995,370.772z"
								/>
						</g>
						<g id="XMLID_3575_">
							<path id="XMLID_3577_" fill="#455A64" d="M309.333,364.595c-0.031,0-0.06-0.006-0.09-0.019
								c-0.116-0.05-0.167-0.183-0.118-0.298l0.806-1.862l0.899,1.039c0.083,0.094,0.072,0.237-0.022,0.319
								c-0.097,0.081-0.238,0.071-0.32-0.023l-0.427-0.493l-0.521,1.201C309.504,364.543,309.42,364.595,309.333,364.595z"/>
						</g>
					</g>
					<g id="XMLID_3567_">
						<g id="XMLID_3572_">
							<path id="XMLID_3573_" fill="#455A64" d="M312.09,369.578c-0.125,0-0.226-0.101-0.226-0.227v-7.71
								c0-0.125,0.101-0.227,0.226-0.227c0.125,0,0.227,0.101,0.227,0.227v7.71C312.317,369.477,312.215,369.578,312.09,369.578z"/>
						</g>
						<g id="XMLID_3568_">
							<path id="XMLID_3571_" fill="#455A64" d="M311.427,363.4c-0.031,0-0.06-0.006-0.09-0.019
								c-0.116-0.049-0.168-0.183-0.118-0.298l0.806-1.862l0.899,1.038c0.083,0.094,0.072,0.237-0.022,0.319
								c-0.097,0.081-0.238,0.072-0.32-0.023l-0.427-0.493l-0.52,1.201C311.598,363.349,311.514,363.4,311.427,363.4z"/>
						</g>
					</g>
				</g>
			</g>
			<g>
				<g id="XMLID_3563_">
					<path id="XMLID_3564_" fill="#FAFAFA" d="M277.299,373.742l-0.001,15.148c0,0.583,0.41,0.82,0.915,0.528l23.65-13.653
						c0.505-0.292,0.915-1.001,0.915-1.585l-0.001-15.157c0-0.583-0.41-0.82-0.915-0.528l-23.647,13.662
						C277.709,372.449,277.299,373.159,277.299,373.742z"/>
				</g>
				<g id="XMLID_3236_">
					<g id="XMLID_3561_">
						<polygon id="XMLID_3562_" fill="#455A64" points="301.312,360.665 300.549,361.106 300.549,374.876 301.313,374.435 						"/>
					</g>
					<g id="XMLID_3559_">
						<polygon id="XMLID_3560_" fill="#455A64" points="298.204,362.459 296.888,363.233 296.888,377.003 298.204,376.229 						"/>
					</g>
					<g id="XMLID_3556_">
						<polygon id="XMLID_3558_" fill="#455A64" points="295.096,364.253 294.332,364.694 294.332,378.464 295.096,378.023 						"/>
					</g>
					<g id="XMLID_3552_">
						<polygon id="XMLID_3555_" fill="#455A64" points="292.752,365.581 291.224,366.487 291.224,380.258 292.752,379.352 						"/>
					</g>
					<g id="XMLID_3548_">
						<polygon id="XMLID_3551_" fill="#455A64" points="288.879,367.84 288.115,368.281 288.116,382.051 288.879,381.611 						"/>
					</g>
					<g id="XMLID_3541_">
						<polygon id="XMLID_3542_" fill="#455A64" points="286.641,369.104 285.007,370.075 285.007,383.845 286.641,382.874 						"/>
					</g>
					<g id="XMLID_3521_">
						<polygon id="XMLID_3522_" fill="#455A64" points="282.662,371.428 281.898,371.869 281.899,385.639 282.662,385.198 						"/>
					</g>
					<g id="XMLID_3498_">
						<polygon id="XMLID_3499_" fill="#455A64" points="280.889,372.437 280.507,372.658 280.507,386.428 280.889,386.207 						"/>
					</g>
					<g id="XMLID_3488_">
						<polygon id="XMLID_3489_" fill="#455A64" points="284.079,370.678 283.697,370.898 283.698,384.669 284.079,384.448 						"/>
					</g>
					<g id="XMLID_3452_">
						<polygon id="XMLID_3455_" fill="#455A64" points="290.341,367.01 289.959,367.231 289.959,381.001 290.341,380.781 						"/>
					</g>
					<g id="XMLID_3243_">
						<polygon id="XMLID_3244_" fill="#455A64" points="293.77,365.043 293.388,365.263 293.388,379.033 293.77,378.813 						"/>
					</g>
					<g id="XMLID_3241_">
						<polygon id="XMLID_3242_" fill="#455A64" points="296.233,363.682 295.851,363.903 295.851,377.673 296.233,377.453 						"/>
					</g>
					<g id="XMLID_3239_">
						<polygon id="XMLID_3240_" fill="#455A64" points="299.572,361.655 299.19,361.875 299.191,375.646 299.572,375.425 						"/>
					</g>
					<g id="XMLID_3237_">
						<polygon id="XMLID_3238_" fill="#455A64" points="279.553,373.222 278.79,373.663 278.79,387.433 279.554,386.992 						"/>
					</g>
				</g>
			</g>
		</g>
	</g>
</g>
<g id="Character">
	<g id="Character_30_">
		<g id="Botom_4_">
			<g id="XMLID_10831_">
				<g id="XMLID_10832_">
					<g>
						<g id="XMLID_10840_">
							<path id="XMLID_10841_" fill="#FFA8A7" d="M137.415,349.751c0.326-5.306,3.172-58.8,3.172-58.8l-25.973,18.335
								c4.538,30.578,5.533,39.794,5.727,44.896l0,0c-0.04,0.119-0.142,0.554-0.12,1.309c0.139,6.06,7.395,9.225,13.084,13.184
								c2.247,1.564,8.784,6.183,15.358,9.202c4.115,1.889,12.398,1.948,13.376-0.561c-6.924-4.859-14.932-10.163-20.471-15.746
								C138.924,358.905,137.024,356.118,137.415,349.751z"/>
						</g>
						<g>
							<path fill="#263238" d="M173.807,383.672c0.35-0.005,0.948,3.656-0.924,5.243c-2.161,1.831-8.55,4.879-17.085,3.954
								c-8.535-0.926-13.194-3.364-16.653-6.027c-3.459-2.662-8.307-6.418-12.174-7.171c-3.592-0.699-7.507-2.185-8.672-3.22
								c-1.165-1.035-1.094-5.712-1.094-5.712L173.807,383.672z"/>
							<path id="XMLID_10838_" fill="#37474F" d="M120.258,352.702c0,0-1.068,0.027-1.268,1.112
								c-0.238,1.292-0.45,5.042-0.973,7.164c-0.726,2.95-1.136,8.98-0.622,11.368c0.514,2.388,6.379,3.969,10.132,5.266
								c3.833,1.324,8.291,4.103,12.214,7.078c4.06,3.079,12.538,6.106,18.089,6.104c8.475-0.003,13.921-2.266,15.561-5.185
								c2.028-3.611,0.346-5.663-9.472-9.813c-1.859-0.785-8.402-4.336-10.633-5.625c-6.038-3.487-12.046-8.375-14.912-14.657
								c-0.335-0.734-0.687-1.548-1.436-1.913c-0.574-0.28-1.259-0.229-1.896-0.135c-1.618,0.239-3.195,0.719-4.66,1.41
								c-1.296,0.611-3.136,1.326-3.078,2.917c0.02,0.553,0.199,1.091,0.397,1.612c0.123,0.323,0.223,0.754-0.073,0.95
								c-0.279,0.185-0.658-0.016-0.916-0.229c-1.036-0.853-1.804-1.955-2.681-2.957c-0.47-0.536-0.981-1.05-1.569-1.471
								c-0.535-0.382-1.211-0.567-1.687-1.003C120.171,354.144,120.3,353.447,120.258,352.702z"/>
							<path fill="#FAFAFA" d="M165.501,376.481c-12.252,0.978-15.979,8.234-16.415,12.698c3.059,0.98,6.206,1.617,8.743,1.616
								c8.475-0.003,14.269-2.268,15.909-5.186C175.652,382.201,174.257,379.495,165.501,376.481z"/>
							<g>
								<g>
									<path fill="#F0F0F0" d="M147.115,376.862c-0.133,0.002-0.268-0.038-0.382-0.123c-0.26-0.195-0.303-0.553-0.099-0.8
										c1.67-2.012,6.546-4.713,11.012-4.315c0.33,0.029,0.574,0.307,0.544,0.619c-0.029,0.313-0.312,0.543-0.65,0.515
										c-4.17-0.36-8.641,2.293-9.965,3.889C147.46,376.785,147.29,376.859,147.115,376.862z"/>
								</g>
								<g>
									<path fill="#F0F0F0" d="M141.777,374.011c-0.134,0.002-0.268-0.038-0.382-0.123c-0.26-0.195-0.304-0.553-0.1-0.8
										c1.672-2.014,6.549-4.722,11.013-4.315c0.33,0.029,0.574,0.307,0.543,0.62c-0.029,0.312-0.307,0.542-0.65,0.514
										c-4.169-0.365-8.641,2.293-9.965,3.889C142.122,373.935,141.951,374.009,141.777,374.011z"/>
								</g>
								<g>
									<path fill="#F0F0F0" d="M136.819,370.739c-0.134,0.002-0.268-0.038-0.382-0.124c-0.26-0.195-0.304-0.553-0.1-0.8
										c1.67-2.014,6.566-4.717,11.013-4.315c0.331,0.028,0.574,0.307,0.544,0.619c-0.029,0.313-0.309,0.541-0.65,0.515
										c-4.164-0.362-8.64,2.293-9.965,3.889C137.164,370.662,136.993,370.736,136.819,370.739z"/>
								</g>
								<g>
									<path fill="#F0F0F0" d="M131.96,367.465c-0.13,0.002-0.263-0.036-0.374-0.118c-0.264-0.191-0.313-0.55-0.112-0.798
										c2.296-2.854,7.57-4.787,12.032-4.387c0.331,0.029,0.574,0.307,0.543,0.62c-0.029,0.313-0.311,0.534-0.65,0.514
										c-4.017-0.357-8.936,1.418-10.974,3.947C132.311,367.387,132.136,367.462,131.96,367.465z"/>
								</g>
							</g>
						</g>
					</g>
					<g>
						<g id="XMLID_10836_">
							<path id="XMLID_10837_" fill="#FFA8A7" d="M94.576,306.708l-27.094-5.858c-0.714,16.774-0.282,39.465-0.856,55.208
								c-0.108,2.964-1.644,22.987-0.792,29.14c1.281,9.244,13.673,8.642,14.697,3.202c1.025-5.44,1.921-28.69,2.124-31.1
								c0.576-10.086,6.33-27.038,10.367-44.989C93.221,311.429,94.387,307.568,94.576,306.708z"/>
						</g>
						<g>
							<path fill="#263238" d="M84.911,392.448c-0.108,5.389-0.891,8.987-2.909,12.22c-2.018,3.232-6.052,4.373-10.226,3.604
								c-4.174-0.77-9.579-3.041-10.976-7.634c-1.397-4.593-1.304-7.78-0.594-12.799L84.911,392.448z"/>
							<path id="XMLID_10834_" fill="#37474F" d="M66.685,354.134c-1.697,0.181-1.868,7.417-2.518,14.68
								c-0.696,7.785-3.172,11.086-3.82,17.471c-0.741,7.296-0.16,10.521,2.924,14.801c3.083,4.281,13.486,8.206,18.227,1.736
								c3.865-5.274,3.773-10.961,3.067-18.192c-0.73-7.475-1.311-12.731-1.225-18.428c0.082-5.445,1.021-10.516-0.486-11.065
								c-0.077,0.802-0.141,1.819-0.226,2.607c-0.065,0.605-0.1,3.552-1.053,3.616c-0.12-0.69-0.133-1.338-0.113-2.046
								c0.018-0.616-0.072-1.284-0.547-1.735c-0.479-0.455-1.984-0.79-2.679-0.885c-1.689-0.23-3.386-0.43-5.094-0.502
								c-0.851-0.036-1.703-0.041-2.554,0c-0.69,0.033-1.501,0.114-2.145,0.352c-0.395,0.146-0.755,0.412-0.888,0.771
								c-0.098,0.266-0.064,0.553-0.051,0.832c0.023,0.502-0.026,1.006-0.145,1.497c-0.053,0.216-0.208,0.484-0.454,0.441
								c-0.2-0.035-0.288-0.249-0.297-0.428c-0.047-0.875,0.05-1.517,0.049-2.537c0-0.471,0.057-1.116,0.043-1.589
								C66.688,355.064,66.671,354.599,66.685,354.134z"/>
							<path fill="#FAFAFA" d="M60.068,390.506c-0.087,4.516,0.346,7.591,2.76,10.942c3.084,4.281,14.309,8.189,19.049,1.72
								c2.359-3.219,2.86-6.94,3.031-10.724C81.672,387.713,64.633,386.208,60.068,390.506z"/>
							<g>
								<g>
									<path fill="#F0F0F0" d="M80.179,384.717c-0.071-0.004-0.142-0.018-0.212-0.043c-0.07-0.026-7.149-2.641-14.744-0.792
										c-0.336,0.077-0.683-0.093-0.777-0.39c-0.092-0.297,0.107-0.604,0.444-0.686c8.034-1.951,15.271,0.729,15.577,0.842
										c0.321,0.122,0.469,0.449,0.332,0.732C80.69,384.602,80.438,384.73,80.179,384.717z"/>
								</g>
								<g>
									<path fill="#F0F0F0" d="M65.388,378.459c-0.239-0.012-0.461-0.145-0.553-0.355c-0.124-0.288,0.038-0.611,0.363-0.722
										c7.527-2.563,15.225,0.579,15.551,0.716c0.316,0.131,0.451,0.462,0.3,0.741c-0.15,0.277-0.532,0.391-0.841,0.266
										c-0.073-0.03-7.551-3.075-14.555-0.682C65.566,378.452,65.477,378.463,65.388,378.459z"/>
								</g>
								<g>
									<path fill="#F0F0F0" d="M65.591,373.343c-0.235-0.012-0.453-0.141-0.547-0.346c-0.132-0.287,0.024-0.612,0.347-0.726
										c8.272-2.963,15.555,0.513,15.86,0.661c0.305,0.149,0.416,0.488,0.247,0.757c-0.169,0.27-0.561,0.369-0.859,0.219
										c-0.068-0.034-7.073-3.361-14.773-0.606C65.776,373.335,65.682,373.348,65.591,373.343z"/>
								</g>
								<g>
									<path fill="#EBEBEB" d="M65.846,367.595c-0.231-0.012-0.447-0.137-0.544-0.339c-0.136-0.284,0.014-0.61,0.336-0.73
										c7.747-2.889,15.648,0.657,15.98,0.813c0.31,0.14,0.428,0.478,0.266,0.751c-0.16,0.274-0.54,0.384-0.852,0.236
										c-0.077-0.035-7.71-3.459-14.903-0.774C66.036,367.586,65.94,367.6,65.846,367.595z"/>
								</g>
							</g>
						</g>
					</g>
					<path id="XMLID_10833_" fill="#455A64" d="M78.863,169.304c-0.642,30.518-6.097,98.306-6.097,98.306
						c-0.461,3.748-5.887,19.69-6.086,33.246c-0.313,21.274-0.767,37.386-0.767,37.386s11.884,4.705,20.613,1.449
						c0,0,11.356-45.217,14.539-59.329c3.791-16.807,13.258-48.064,13.258-48.064l-0.69,44.427c0,0-1.896,13.702-0.357,26.857
						c1.049,8.961,4.648,33.912,4.648,33.912s10.938,2.203,20.417-0.605c0,0,5.71-53.578,6.18-61.823
						c0.536-9.4,3.44-103.932,3.44-103.932L78.863,169.304z"/>
					<path fill="#37474F" d="M114.323,232.298l4.247-28.322c0,0,10.37-0.41,17.476-7.06c0,0-0.885,6.641-13.853,10.645
						l-4.909,23.884l-3.804,44.449L114.323,232.298z"/>
				</g>
			</g>
		</g>
		<g id="Top_32_">
			<g>
				<path fill="#FFA8A7" d="M132.835,80.323c5.508-0.289,15.769-0.639,23.142,8.439c5.182,6.381,19.315,21.731,27.323,31.864
					c5.368-5.587,18.385-19.127,20.517-23.084c2.659-4.661,4.045-9.254,4.861-11.656c1.043-3.069,1.427-5.456,1.71-7.267
					c0.673-4.314,0.192-7.531,0.156-9.109c-0.066-2.754,4.027-1.341,5.593,3.032c1.145,3.196,1.053,5.524,1.198,7.482
					c1.517-0.727,5.921-2.89,6.608-3.209c2.395-1.111,10.013-3.787,10.741,0.505c0.162,0.961-0.14,2.01,0.279,2.89
					c0.201,0.42,0.546,0.75,0.833,1.116c1.083,1.377,1.322,3.37,0.595,4.966c-0.355,0.781-0.521,1.406-0.415,2.274
					c0.099,0.813,0.335,1.656,0.104,2.469c-0.185,0.65-0.651,1.177-0.963,1.777c-0.404,0.777-0.542,1.661-0.66,2.529
					c-0.118,0.868-0.225,1.752-0.578,2.554c-0.836,1.905-3.137,2.339-4.905,2.974c-2.351,0.845-5.497,1.944-7.941,3.131
					c-4.247,2.8-15.691,23.499-27.28,36.764c-3.97,4.544-7.532,7.388-11.298,6.89l0.035-0.012c-3.048-0.069-6.817-2.836-10.45-5.973
					c-11.551-9.975-30.097-29.577-30.097-29.577C134.126,102.69,131.95,86.622,132.835,80.323z"/>
				<path fill="#455A64" d="M137.951,78.778c3.66,0.57,6.177,0.464,10.836,3.107c4.101,2.328,5.576,4.291,10.326,9.605
					c4.749,5.314,16.102,19.111,16.102,19.111s-4.837,11.548-19.797,15.742l-16.554-16.067L137.951,78.778z"/>
				<path fill="#F28F8F" d="M220.4,80.425c-2.357,0.833-2.962,2.432-2.785,5.856c0.105,2.03-0.379,5.802-2.533,7.377
					c0,0,1.825-0.232,2.833-1.339c1.009-1.106,1.29-1.236,1.888-0.643c0.598,0.593,1.551,0.828,1.551,0.828s-1.259,1.428-0.142,3.15
					c1.117,1.723,5.875,1.61,9.706-0.532c0,0-6.263,2.173-7.794,0.209c-1.53-1.964,1.74-4.593,4.212-5.355
					c0,0-6.061,1.652-7.058-0.322c-0.997-1.974,1.476-3.573,5.044-4.606c0,0-5.022,1.078-5.941-0.608
					C218.265,82.388,219.757,81.133,220.4,80.425z"/>
			</g>
			<g id="XMLID_10829_">
				<path id="XMLID_10830_" fill="#27DEBF" d="M81.747,81.911c0,0-5.867,5.161-7.366,10.739c-0.737,2.742-1.416,5.031,0.905,20.247
					c2.216,14.53,2.208,18.888,2.711,30.204l0.577,30.354c8.693,10.18,50.869,15.715,71.167,2.002c0,0,0.116-52.617-1.319-69.964
					c-0.975-11.782-4.586-22.84-8.637-26.458c-5.517-0.958-10.824-1.599-10.824-1.599l-20.299-1.181L81.747,81.911z"/>
			</g>
			<g id="Head_14_">
				<g>
					<g id="XMLID_10821_">
						<g id="XMLID_10828_">
							<path fill="#37474F" d="M139.172,39.72c2.704-6.202,0.056-14.425-3.174-18.288c-4.671-5.584-11.94-7.992-22.898-7.312
								c-8.332,0.517-16.528,3.978-18.088,12.53c-6.698,1.998-5.934,12.997-4.269,17.848c3.381,9.846,10.028,18.414,10.142,23.449
								L139.172,39.72z"/>
							<path fill="#FFA8A7" d="M139.167,62.882c-1.316,4.753-4.07,8.237-8.463,8.924c-2.628,0.416-6.942,0.038-6.942,0.038
								l0.173,6.052c5.915,5.063,3.746,11.712-0.2,17.705c-4.902-5.451-10.514-7.394-15.412-9.552
								c-4.887-2.147-7.147-6.921-7.147-6.921l-0.626-20.438c0,0-2.691,3.055-7.126,0.167c-3.038-1.993-5.223-7.122-3.009-11.844
								c2.195-4.638,6.597-2.719,7.954-1.313c1.347,1.407,2.931,4.059,4.058,3.689c1.717-0.572,2.286-1.648,2.728-2.785
								c0.787-1.989,1.353-4.556,1.436-8.988c1.226-0.623,2.404-1.516,3.44-2.655c1.89-2.098,2.905-4.592,2.987-6.877
								c9.5-2.975,20.426-1.574,24.375,1.481c2.273,4.002,2.355,13.309,2.731,18.668C140.534,54.052,140.273,58.905,139.167,62.882z
								"/>
							<path fill="#F28F8F" d="M123.762,71.84c-4.862-0.274-14.639-2.544-17.244-5.258c-2.605-2.714-3.712-8.265-3.712-8.265
								s0.391,7.013,2.404,10.107c2.013,3.094,7.101,4.444,10.189,5.211c3.088,0.768,8.454,1.283,8.454,1.283L123.762,71.84z"/>
							<g>
								<path fill="#455A64" d="M123.735,95.605c-2.544-1.562-8.16-7.937-10.952-4.975c-2.793,2.962-4.289,3.776-6.134,3.227
									c-1.844-0.549-5.916-4.57-8.579-7.509c-2.663-2.939-3.502-7.162-3.502-7.162s2.577-3.127,3.751-5.214
									c1.264-2.246,0.996-2.877,2.61-2.988l0.145,4.231c0,0,1.031,2.308,5.598,5.428C111.24,83.762,120.447,88.412,123.735,95.605
									z"/>
								<path fill="#455A64" d="M123.735,95.605c1.514-1.382,3.977-7.839,4.636-7.645c0.971,0.285,2.708,4.727,3.545,3.695
									c1.332-1.64,0.927-9.127-1.285-11.849c-2.128-2.618-5.155-5.613-6.809-5.901l0.117,3.993c0,0,1.66,3.233,1.639,6.438
									C125.563,86.602,124.049,93.431,123.735,95.605z"/>
							</g>
						</g>
						<g id="XMLID_10822_">
							<path id="XMLID_10827_" fill="#263238" d="M120.687,45.123c0.003,1.128-0.874,2.042-1.959,2.042
								c-1.086,0.001-1.968-0.913-1.972-2.041c-0.003-1.128,0.873-2.042,1.959-2.043C119.801,43.082,120.684,43.996,120.687,45.123z
								"/>
							<path id="XMLID_10826_" fill="#263238" d="M117.936,38.838l-3.98,2.687c-0.726-1.147-0.423-2.68,0.676-3.421
								C115.732,37.361,117.211,37.69,117.936,38.838z"/>
							<path id="XMLID_10825_" fill="#263238" d="M137.009,40.681l-4.365-2.087c0.535-1.237,1.947-1.772,3.152-1.196
								C137.002,37.974,137.545,39.444,137.009,40.681z"/>
							<path id="XMLID_10824_" fill="#263238" d="M135.539,45.001c0.004,1.127-0.873,2.042-1.959,2.042
								c-1.085,0-1.968-0.913-1.971-2.041c-0.004-1.127,0.874-2.042,1.959-2.042C134.653,42.959,135.536,43.873,135.539,45.001z"/>
							<polygon id="XMLID_10823_" fill="#F28F8F" points="125.202,40.895 126.623,55.026 134.206,52.738 							"/>
						</g>
					</g>
				</g>
				<path id="XMLID_10820_" fill="#B16668" d="M120.676,58.318l8.134,1.8c-0.449,2.322-2.635,3.802-4.882,3.305
					C121.682,62.926,120.226,60.64,120.676,58.318z"/>
				<path fill="#F28F8F" d="M123.928,63.423c0.171,0.038,0.34,0.043,0.509,0.058c-0.052-2.053-1.73-3.688-3.782-3.688
					C120.906,61.539,122.166,63.033,123.928,63.423z"/>
			</g>
			<g>
				<g id="XMLID_3785_">
					<polygon id="XMLID_3793_" fill="#263238" points="189.562,127.024 136.406,137.419 116.793,201.291 167.418,190.064 					"/>
					<path id="XMLID_3792_" opacity="0.15" d="M145.236,175.104c-0.341,1.713-2.473,7.248-8.61,8.863
						c-6.983,1.838-14.255-0.836-14.255-0.836l1.64-5.341L145.236,175.104z"/>
					<path id="XMLID_3791_" opacity="0.15" d="M173.654,135.43c0,0,0.251-0.88,0.56-1.966c0.309-1.086-2.755-1.331-6.844-0.547
						l-7.829,1.5c-4.089,0.784-7.655,2.299-7.964,3.385l-0.56,1.966L173.654,135.43z"/>
					<g id="XMLID_3788_">
						<path id="XMLID_3790_" fill="#27DEBF" d="M177.762,128.144c0.196-0.678-1.035-0.939-2.749-0.582l-3.104,0.645
							c0,0,1.188-4.252-5.677-3.182c-6.864,1.07-8.66,5.87-8.66,5.87s-1.484,0.32-3.315,0.715c-1.831,0.395-3.523,1.259-3.78,1.931
							l-0.465,1.215l27.381-5.352C177.393,129.404,177.566,128.822,177.762,128.144z"/>
						<path id="XMLID_3789_" opacity="0.3" d="M177.762,128.144c0.196-0.678-1.035-0.939-2.749-0.582l-3.104,0.645
							c0,0,1.188-4.252-5.677-3.182c-6.864,1.07-8.66,5.87-8.66,5.87s-1.484,0.32-3.315,0.715c-1.831,0.395-3.523,1.259-3.78,1.931
							l-0.465,1.215l27.381-5.352C177.393,129.404,177.566,128.822,177.762,128.144z"/>
						<path fill="#27DEBF" d="M151.889,138.011c0.256-0.902,2.774-2.096,5.961-2.925c0.031-0.113,0.063-0.226,0.086-0.316
							c0.246-0.945-0.123-1.547-2.051-1.168l-0.112-0.77l18.979-3.55l-0.837,0.775c-2.506,0.436-3.552,0.698-4.03,2.371
							c-0.04,0.138-0.066,0.25-0.103,0.383c2.977-0.34,4.997-0.026,4.745,0.862c-0.31,1.086-0.56,1.966-0.56,1.966l-22.638,4.338
							L151.889,138.011z"/>
						<path opacity="0.4" d="M151.889,138.011c0.256-0.902,2.774-2.096,5.961-2.925c0.031-0.113,0.063-0.226,0.086-0.316
							c0.246-0.945-0.123-1.547-2.051-1.168l-0.112-0.77l18.979-3.55l-0.837,0.775c-2.506,0.436-3.552,0.698-4.03,2.371
							c-0.04,0.138-0.066,0.25-0.103,0.383c2.977-0.34,4.997-0.026,4.745,0.862c-0.31,1.086-0.56,1.966-0.56,1.966l-22.638,4.338
							L151.889,138.011z"/>
					</g>
				</g>
				<path fill="#FFA8A7" d="M128.196,164.157c6.508,2.182,13.009,2.34,19.765,2.329c1.651-0.003,2.902,0.25,3.389,1.826
					c0.173,0.559,0.401,1.333-1.734,1.963c-0.561,0.166-1.34,0.366-1.655,0.859c-0.495,0.775-0.249,1.554-0.377,2.464
					c-0.188,1.341-1.125,2.438-2.023,3.452c-1.014,1.145-2.046,2.305-3.34,3.12c-4.117,2.59-10.467,2.909-15.158,2.151
					c-3.183-0.515-6.346-1.652-9.358-2.765c-2.863-1.058-20.294-6.195-22.365-6.918c-15.388-5.369-36.553-11.954-37.795-19.246
					c-1.243-7.293,2.666-30.02,5.467-48.545c2.262-14.96,8.328-20.294,18.163-22.347c10.773,12.237,3.964,33.449,3.964,33.449
					l-3.919,28.257c1.656,1.382,26.837,15.516,31.186,16.924c1.576,0.51,4.532-0.112,6.1-0.647
					c4.208-1.436,7.091-1.318,11.166-1.132"/>
				<path fill="#455A64" d="M81.747,81.911c-10.443,1.433-16.624,6.781-18.735,16.897c-1.774,8.499-5.065,35.947-5.065,35.947
					c6.945,6.125,18.337,5.794,24.5,3.654l3.185-22.05C88.193,110.717,92.213,93.89,81.747,81.911z"/>
			</g>
			<g>
				<path fill="#455A64" d="M75.044,171.085l-5.274,2.914c-0.641,0.354-1.18,1.235-1.201,1.967
					c-0.133,4.728-0.513,20.953,0.243,29.842c0.062,0.73,0.642,1.615,1.281,1.973c3.012,1.69,11.137,6.146,14.867,7.181
					c0.706,0.196,1.855-0.005,2.535-0.278l3.759-1.509c0.68-0.273,1.222-1.089,1.225-1.821c0.035-9.438,1.666-19.81,3.232-30.092
					c0.11-0.724-0.336-1.569-0.995-1.887l-17.317-8.355C76.74,170.702,75.685,170.731,75.044,171.085z"/>
				<path fill="#37474F" d="M68.813,205.807c-0.756-8.889-0.376-25.111-0.243-29.84c0.021-0.732,0.572-1.063,1.227-0.737
					l16.116,8.009c0.656,0.326,1.135,1.183,1.075,1.913c-0.342,4.193-1.312,17.574-0.793,28.702c0.034,0.732-0.53,1.303-1.235,1.107
					c-3.731-1.035-11.853-5.49-14.866-7.18C69.456,207.423,68.875,206.537,68.813,205.807z"/>
				<path fill="#263238" d="M85.159,214.994c0.707,0.137,1.723-0.068,2.339-0.313l3.76-1.512c0.682-0.261,1.161-1.089,1.216-1.817
					c0.735-9.694,1.667-19.81,3.239-30.09c0.055-0.347-0.022-0.702-0.192-1.029l-8.724,3.979c0.142,0.301,0.219,0.63,0.189,0.936
					c-0.344,4.204-1.313,17.583-0.788,28.712C86.231,214.522,85.771,215.054,85.159,214.994z"/>
				<path fill="#263238" d="M71.702,179.318l11.833,5.725l-0.63,9.633l-11.534-5.078C71.371,189.597,71.453,183.397,71.702,179.318z
					"/>
				<path fill="#27DEBF" d="M82.953,193.941l-10.923-4.809c0,0,0.073-5.471,0.288-9.517l11.217,5.427L82.953,193.941z"/>
				<path opacity="0.4" d="M82.953,193.941l-10.923-4.809c0,0,0.073-5.471,0.288-9.517l11.217,5.427L82.953,193.941z"/>
				<polygon fill="#263238" points="88.503,178.706 85.562,180.115 74.961,174.925 77.817,173.491 				"/>
				<polygon fill="#27DEBF" points="88.062,178.918 85.562,180.115 75.405,175.142 77.831,173.924 				"/>
				<polygon opacity="0.4" points="88.062,178.918 85.562,180.115 75.405,175.142 77.831,173.924 				"/>
				<polygon opacity="0.4" points="86.552,178.181 84.029,179.365 83.707,179.207 86.217,178.017 				"/>
				<polygon opacity="0.4" points="84.287,177.07 81.795,178.267 81.43,178.092 83.951,176.907 				"/>
				<polygon opacity="0.4" points="82.044,175.98 79.529,177.164 79.207,177.007 81.708,175.816 				"/>
				<polygon opacity="0.4" points="79.991,174.979 77.478,176.157 77.156,176 79.656,174.815 				"/>
				<g>
					<g>
						<path fill="#263238" d="M83.417,197.965l-0.083,1.188c-0.026,0.365-0.321,0.549-0.66,0.41l-2.14-0.878
							c-0.339-0.139-0.596-0.548-0.575-0.914l0.071-1.217c0.021-0.366,0.313-0.548,0.651-0.407l2.17,0.902
							C83.189,197.19,83.443,197.6,83.417,197.965z"/>
						<path fill="#263238" d="M83.437,201.837l-0.065,1.189c-0.02,0.366-0.312,0.554-0.653,0.42l-2.152-0.844
							c-0.341-0.134-0.604-0.539-0.589-0.905l0.052-1.217c0.016-0.366,0.304-0.553,0.645-0.417l2.182,0.868
							C83.197,201.065,83.457,201.471,83.437,201.837z"/>
						<path fill="#263238" d="M83.457,205.708l-0.047,1.19c-0.014,0.366-0.304,0.559-0.647,0.43l-2.164-0.811
							c-0.343-0.129-0.613-0.529-0.603-0.896l0.033-1.218c0.01-0.366,0.296-0.557,0.638-0.427l2.195,0.835
							C83.205,204.94,83.471,205.342,83.457,205.708z"/>
						<path fill="#263238" d="M83.477,209.58l-0.028,1.191c-0.009,0.366-0.295,0.563-0.64,0.44l-2.178-0.779
							c-0.345-0.123-0.621-0.52-0.617-0.886l0.015-1.219c0.004-0.366,0.287-0.562,0.631-0.437l2.209,0.801
							C83.213,208.816,83.485,209.214,83.477,209.58z"/>
					</g>
					<g>
						<path fill="#263238" d="M78.626,195.781l-0.064,1.239c-0.019,0.366-0.308,0.549-0.647,0.409l-2.125-0.88
							c-0.339-0.14-0.601-0.55-0.586-0.916l0.051-1.268c0.015-0.366,0.3-0.548,0.638-0.406l2.155,0.904
							C78.386,195.004,78.645,195.415,78.626,195.781z"/>
						<path fill="#263238" d="M78.609,199.625l-0.058,1.239c-0.017,0.366-0.306,0.55-0.645,0.411l-2.13-0.87
							c-0.339-0.138-0.603-0.547-0.59-0.913l0.045-1.268c0.013-0.366,0.298-0.549,0.636-0.409l2.159,0.894
							C78.366,198.849,78.627,199.26,78.609,199.625z"/>
						<path fill="#263238" d="M78.593,203.47l-0.052,1.24c-0.015,0.366-0.303,0.551-0.643,0.415l-2.133-0.86
							c-0.34-0.137-0.606-0.545-0.595-0.911l0.039-1.269c0.011-0.366,0.295-0.55,0.634-0.412l2.164,0.884
							C78.346,202.695,78.608,203.104,78.593,203.47z"/>
						<path fill="#263238" d="M78.577,207.314l-0.046,1.24c-0.014,0.366-0.301,0.553-0.641,0.418l-2.138-0.85
							c-0.34-0.135-0.608-0.542-0.599-0.908l0.033-1.269c0.009-0.366,0.293-0.552,0.632-0.415l2.168,0.874
							C78.326,206.541,78.59,206.948,78.577,207.314z"/>
					</g>
					<g>
						<g>
							<path fill="#263238" d="M73.834,193.596l-0.043,1.29c-0.012,0.366-0.296,0.548-0.634,0.407l-2.111-0.882
								c-0.338-0.141-0.605-0.552-0.597-0.918l0.03-1.32c0.008-0.366,0.289-0.547,0.626-0.405l2.141,0.906
								C73.583,192.818,73.846,193.23,73.834,193.596z"/>
						</g>
						<g>
							<path fill="#263238" d="M73.848,197.335l-0.043,1.29c-0.012,0.366-0.296,0.548-0.634,0.407l-2.112-0.882
								c-0.338-0.141-0.605-0.552-0.597-0.918l0.03-1.32c0.008-0.366,0.288-0.547,0.626-0.404l2.141,0.906
								C73.596,196.557,73.86,196.969,73.848,197.335z"/>
						</g>
						<g>
							<path fill="#263238" d="M73.861,201.075l-0.043,1.29c-0.012,0.366-0.296,0.548-0.634,0.407l-2.111-0.882
								c-0.338-0.141-0.605-0.552-0.597-0.919l0.03-1.32c0.008-0.366,0.289-0.547,0.626-0.404l2.141,0.906
								C73.61,200.296,73.873,200.709,73.861,201.075z"/>
						</g>
						<path fill="#263238" d="M73.875,204.814l-0.043,1.29c-0.012,0.366-0.296,0.548-0.634,0.407l-2.111-0.882
							c-0.338-0.141-0.605-0.552-0.597-0.919l0.03-1.32c0.008-0.366,0.288-0.547,0.626-0.405l2.141,0.906
							C73.624,204.036,73.887,204.448,73.875,204.814z"/>
					</g>
				</g>
			</g>
		</g>
	</g>
</g>
<g id="Speech_Bubble">
	<g id="Speech_Bubble_2_">
		<g id="Speech_Bubble_3_">
			<g>
				<path fill="#27DEBF" d="M288.026,76.585l-12.367,7.161l4.913,11.042c0.107,0.241,0.274,0.415,0.47,0.526
					c0.587,0.333,4.056,2.342,4.248,2.453c0.587,0.34,1.434,0.1,1.659-0.661l5.334-18.064L288.026,76.585z"/>
				<path opacity="0.15" d="M288.026,76.585l-12.367,7.161l4.913,11.042c0.107,0.241,0.274,0.415,0.47,0.526
					c0.587,0.333,4.056,2.342,4.248,2.453c0.587,0.34,1.434,0.1,1.659-0.661l5.334-18.064L288.026,76.585z"/>
				<path fill="#27DEBF" d="M279.915,86.204l4.913,11.042c0.428,0.962,1.822,0.87,2.121-0.14l5.334-18.064L279.915,86.204z"/>
			</g>
			<g>
				<path id="XMLID_3797_" fill="#27DEBF" d="M303.596,7.022l-46.639,26.925c-0.591,0.341-1.07,1.172-1.07,1.854v57.875
					c0,0.683,0.482,1.508,1.077,1.844l3.835,2.15c0.595,0.335,1.556,0.331,2.147-0.01l46.639-26.925
					c0.591-0.341,1.07-1.172,1.07-1.854V11.005c0-0.683-0.482-1.508-1.077-1.844l-3.835-2.15
					C305.149,6.675,304.187,6.68,303.596,7.022z"/>
				<path id="XMLID_3796_" opacity="0.5" fill="#FFFFFF" d="M310.641,10.811c-0.084-0.539-0.524-0.732-1.058-0.425l-46.635,26.927
					c-0.297,0.173-0.564,0.465-0.757,0.801l-5.969-3.405c0.193-0.321,0.45-0.598,0.737-0.761l46.64-26.927
					c0.588-0.341,1.548-0.346,2.146-0.01l3.833,2.149C310.117,9.465,310.566,10.173,310.641,10.811z"/>
				<path id="XMLID_3795_" fill="#27DEBF" d="M261.875,97.041V39.166c0-0.683,0.479-1.513,1.07-1.854l46.639-26.925
					c0.591-0.341,1.07-0.065,1.07,0.618V68.88c0,0.683-0.479,1.513-1.07,1.854l-46.639,26.925
					C262.354,98.001,261.875,97.724,261.875,97.041z"/>
				<path id="XMLID_3786_" opacity="0.15" d="M262.945,97.659c-0.57,0.331-1.611,0.342-2.149,0.012l-3.833-2.154
					c-0.593-0.331-1.078-1.157-1.078-1.839V35.801c0-0.356,0.134-0.747,0.341-1.093l5.964,3.405
					c-0.198,0.331-0.316,0.712-0.316,1.053v57.873C261.875,97.664,262.315,98.024,262.945,97.659z"/>
			</g>
		</g>
		<g id="Check_List_1_">
			<g>
				<g>
					<g>
						<path fill="#FAFAFA" d="M266.869,55.285c-0.093,0-0.185-0.024-0.269-0.072c-0.166-0.096-0.269-0.273-0.269-0.465V44.67
							c0-0.192,0.102-0.369,0.269-0.465l8.727-5.038c0.166-0.096,0.371-0.096,0.537,0c0.166,0.096,0.269,0.273,0.269,0.465
							l0.001,10.076c0,0.192-0.102,0.369-0.269,0.465l-8.728,5.039C267.054,55.26,266.961,55.285,266.869,55.285z M267.406,44.98
							v8.837l7.654-4.418l-0.001-8.836L267.406,44.98z"/>
					</g>
					<path id="Check_2_" fill="#455A64" d="M276.619,37.105c-0.539-0.225-1.161,0.028-1.386,0.565l-4.001,9.519l-0.953-0.927
						c-0.416-0.406-1.088-0.397-1.496,0.022c-0.406,0.418-0.396,1.09,0.022,1.496l2.065,2.008c0.198,0.193,0.46,0.299,0.737,0.299
						c0.07,0,0.14-0.007,0.211-0.021c0.344-0.07,0.63-0.305,0.765-0.627l4.602-10.949C277.41,37.953,277.157,37.331,276.619,37.105z
						"/>
				</g>
				<path fill="#455A64" d="M283.013,38.869l22.259-12.853c0.771-0.445,1.395-0.125,1.395,0.714c0,0.839-0.625,1.88-1.395,2.325
					l-22.259,12.852c-0.771,0.445-1.395,0.126-1.395-0.713C281.617,40.355,282.242,39.315,283.013,38.869z"/>
			</g>
			<g>
				<g>
					<g>
						<path fill="#FAFAFA" d="M266.868,70.4c-0.093,0-0.186-0.024-0.269-0.072c-0.166-0.096-0.269-0.273-0.269-0.465V59.786
							c0-0.192,0.102-0.369,0.269-0.465l8.728-5.039c0.166-0.096,0.371-0.096,0.537,0c0.166,0.096,0.269,0.273,0.269,0.465v10.077
							c0,0.192-0.102,0.369-0.269,0.465l-8.728,5.038C267.053,70.375,266.96,70.4,266.868,70.4z M267.405,60.096v8.835l7.654-4.417
							v-8.837L267.405,60.096z"/>
					</g>
					<path id="Check_1_" fill="#455A64" d="M276.619,52.221c-0.539-0.225-1.161,0.028-1.386,0.565l-4.001,9.519l-0.953-0.927
						c-0.416-0.406-1.088-0.397-1.496,0.022c-0.406,0.418-0.396,1.089,0.022,1.496l2.065,2.007c0.198,0.193,0.46,0.299,0.737,0.299
						c0.07,0,0.14-0.007,0.211-0.021c0.344-0.07,0.63-0.305,0.765-0.627l4.602-10.949C277.41,53.068,277.157,52.446,276.619,52.221z
						"/>
				</g>
				<path fill="#455A64" d="M283.013,53.938l22.259-12.853c0.771-0.445,1.395-0.125,1.395,0.714c0,0.839-0.625,1.88-1.395,2.325
					l-22.259,12.852c-0.771,0.445-1.395,0.126-1.395-0.713C281.617,55.424,282.242,54.383,283.013,53.938z"/>
			</g>
			<g>
				<g>
					<g>
						<path fill="#FAFAFA" d="M266.868,85.516c-0.093,0-0.186-0.025-0.269-0.073c-0.166-0.096-0.269-0.273-0.269-0.465V74.901
							c0-0.192,0.102-0.369,0.269-0.465l8.728-5.038c0.166-0.096,0.371-0.096,0.537,0c0.166,0.096,0.269,0.273,0.269,0.465V79.94
							c0,0.192-0.102,0.369-0.269,0.465l-8.728,5.039C267.053,85.491,266.96,85.516,266.868,85.516z M267.405,75.211v8.837
							l7.654-4.418v-8.836L267.405,75.211z"/>
					</g>
					<path id="Check_3_" fill="#455A64" d="M276.619,67.336c-0.539-0.226-1.161,0.028-1.386,0.565l-4.001,9.519l-0.953-0.927
						c-0.416-0.406-1.088-0.397-1.496,0.022c-0.406,0.418-0.396,1.09,0.022,1.496l2.065,2.008c0.198,0.193,0.46,0.299,0.737,0.299
						c0.07,0,0.14-0.007,0.211-0.021c0.344-0.07,0.63-0.305,0.765-0.627l4.602-10.949C277.41,68.184,277.157,67.562,276.619,67.336z
						"/>
				</g>
				<path fill="#455A64" d="M283.013,69.007l22.259-12.853c0.771-0.445,1.395-0.125,1.395,0.714c0,0.839-0.625,1.88-1.395,2.325
					l-22.259,12.852c-0.771,0.445-1.395,0.126-1.395-0.713C281.617,70.493,282.242,69.452,283.013,69.007z"/>
			</g>
		</g>
	</g>
</g>
</svg>
